<svg xmlns="http://www.w3.org/2000/svg" viewBox="0 0 304 291"><g fill="none" fill-rule="evenodd"><path stroke="#FFF" stroke-width="2.4" d="M57.217 25.042C93.129 32.714 124.723 36.55 152 36.55s58.871-3.836 94.783-11.508c15.555-3.323 30.858 6.592 34.181 22.147a28.8 28.8 0 0 1 .636 6.017v184.078c0 15.906-12.894 28.8-28.8 28.8a28.8 28.8 0 0 1-6.974-.857c-29.624-7.394-59.261-11.09-88.911-11.09-31.212 0-64.254 4.096-99.128 12.29-15.484 3.637-30.986-5.967-34.624-21.45a28.8 28.8 0 0 1-.763-6.588V53.206c0-15.906 12.894-28.8 28.8-28.8a28.8 28.8 0 0 1 6.017.636z"/><path stroke="#FFF" stroke-width="2.4" d="M91.7 4.625c32.703 16.705 62.228 28.587 88.576 35.647 26.347 7.06 57.858 11.532 94.531 13.416 15.885.816 28.1 14.355 27.285 30.24a28.8 28.8 0 0 1-.944 5.976L253.506 267.71c-4.117 15.364-19.91 24.481-35.273 20.365a28.8 28.8 0 0 1-6.515-2.633c-26.7-14.81-54.37-26.051-83.01-33.725-30.149-8.078-63.126-12.673-98.932-13.785-15.898-.494-28.386-13.782-27.892-29.68a28.8 28.8 0 0 1 .968-6.56L50.78 22.817C54.897 7.454 70.689-1.663 86.053 2.454a28.8 28.8 0 0 1 5.648 2.17z"/><path fill="#FFF" d="M193.164 120.021l-20.474 5.753c-.72-4.746-4.614-12.8-17.013-12.8-8.507 0-13.986 5.321-13.986 10.93 0 4.89 3.028 8.485 10.093 9.78l13.697 2.588c19.465 3.595 29.558 16.106 29.558 30.631 0 15.963-13.41 32.213-37.776 32.213-28.26 0-40.372-18.263-41.814-32.644l20.907-5.034c.865 9.348 7.21 17.545 21.195 17.545 8.94 0 14.418-4.314 14.418-10.642 0-5.177-4.18-8.916-10.958-10.21l-13.985-2.589c-17.302-3.307-27.828-14.812-27.828-29.912 0-19.27 17.014-32.789 36.623-32.789 25.52 0 35.18 15.244 37.343 27.18z"/></g></svg>