<svg viewBox="0 0 55 55" xmlns="http://www.w3.org/2000/svg"><title>Group 7</title><g fill="none" fill-rule="evenodd"><rect fill="#FFF" width="55" height="55" rx="4"/><path d="M40.906 19.57c.063.183.094.456.094.82v22.24c0 .608-.187 1.155-.563 1.64-.375.487-.843.73-1.406.73H16.25c-.563 0-1.078-.243-1.547-.73-.469-.485-.703-1.032-.703-1.64V12.096c0-.547.234-1.033.703-1.458.469-.425.984-.638 1.547-.638h15c.375 0 .656.06.844.182.375.183.593.304.656.365l7.781 8.385c.188.183.313.395.375.638zm-8.812-5.286v5.742h5.437l-5.437-5.742zM17 42.084h21V22.942h-6.281c-.688 0-1.297-.259-1.828-.775-.532-.517-.797-1.109-.797-1.777v-7.474H17v29.166z" fill="#BEC7CF"/></g></svg>