<svg xmlns="http://www.w3.org/2000/svg" xmlns:xlink="http://www.w3.org/1999/xlink" viewBox="0 0 205 201"><defs><path id="a" d="M0 0h240v220H0z"/></defs><g fill="none" fill-rule="evenodd" transform="translate(-18 -8)"><mask id="b" fill="#fff"><use xlink:href="#a"/></mask><use fill="#D8D8D8" fill-opacity="0" xlink:href="#a"/><g mask="url(#b)"><g transform="translate(-7 -18)"><path fill="#D6DCE7" d="M155.206 223.565c43.095 18.17 36.037-39.848 66.409-102.307 30.371-62.459-31.068-29.777-102.28-66.45-71.21-36.674-42.273 49.175-66.408 102.306-24.134 53.131 59.185 48.282 102.28 66.451z" opacity=".181"/><path fill="#D6DCE7" d="M131.687 204.401c43.095 18.17 36.037-39.848 66.409-102.306 30.37-62.46-31.069-29.778-102.28-66.452C24.607-1.03 53.544 84.82 29.409 137.95c-24.134 53.132 59.185 48.282 102.28 66.451z" opacity=".129"/><path fill="#ACBDDC" fill-rule="nonzero" d="M42 76.546a3 3 0 0 0-3 3v113a3 3 0 0 0 3 3h171a3 3 0 0 0 3-3v-113a3 3 0 0 0-3-3H42zm0-2c27.842.392 47.783.561 59.823.506 33.334-.153 60.243-1.052 80.48-1.052 6.798 0 17.03.182 30.697.546a5 5 0 0 1 5 5c-.398 15.315-.56 25.452-.486 30.41.455 30.492 1.233 44.449.486 54.402-.93 12.38-.93 21.777 0 28.188a5 5 0 0 1-5 5h-16.577c-32.945 0-58.623 1.34-76.389 1.34-17.315 0-43.327-.447-78.034-1.34a5 5 0 0 1-5-5c.344-16.942.516-30.315.516-40.12 0-15.307-.172-39.6-.516-72.88a5 5 0 0 1 5-5z"/><path fill="#ACBDDC" fill-rule="nonzero" d="M54 92a1 1 0 0 0-1 1v14a1 1 0 0 0 1 1h50a1 1 0 0 0 1-1V93a1 1 0 0 0-1-1H54zm0-2c4.589.476 8.76.714 12.512.714 7.358 0 19.854-.238 37.488-.714a3 3 0 0 1 3 3v14a3 3 0 0 1-3 3c-9.653-.494-16.888-.74-21.706-.74-6.293 0-15.725.246-28.294.74a3 3 0 0 1-3-3V93a3 3 0 0 1 3-3zm60.396 2a1 1 0 0 0-1 1v91a1 1 0 0 0 1 1h89a1 1 0 0 0 1-1V93a1 1 0 0 0-1-1h-89zm0-2c27.664.466 46.864.699 57.6.699 9.042 0 19.509-.233 31.4-.699a3 3 0 0 1 3 3c.601 26.134.601 44.537 0 55.21-.53 9.42-.53 21.35 0 35.79a3 3 0 0 1-3 3c-29.7.532-51.96.797-66.78.797-4.958 0-12.364-.265-22.22-.797a3 3 0 0 1-3-3c-.528-19.982-.528-35.149 0-45.5.529-10.351.529-25.518 0-45.5a3 3 0 0 1 3-3zM54 115.41a1 1 0 0 0-1 1v68a1 1 0 0 0 1 1h50a1 1 0 0 0 1-1v-68a1 1 0 0 0-1-1H54zm0-2c14.324.488 24.092.488 29.303 0 5.846-.547 12.745-.547 20.697 0a3 3 0 0 1 3 3c-.459 1.95-.688 9.162-.688 21.635 0 2.638.23 18.093.688 46.365a3 3 0 0 1-3 3c-9.124.564-16.023.845-20.697.845-6.437 0-16.204-.281-29.303-.845a3 3 0 0 1-3-3c.46-13.179.69-23.117.69-29.815 0-8.413-.23-21.142-.69-38.185a3 3 0 0 1 3-3z"/><path stroke="#ACBDDC" stroke-width="2" d="M40.988 75.483V71a4 4 0 0 1 4-4H91.42a4 4 0 0 1 4 4.017l-.023 5.212"/><circle cx="45.5" cy="71.5" r="1.5" fill="#ACBDDC"/><circle cx="51.5" cy="71.5" r="1.5" fill="#ACBDDC"/><circle cx="57.5" cy="71.5" r="1.5" fill="#ACBDDC"/><path stroke="#286CE0" d="M81.103 131.05H95.5a.02.02 0 0 0-.02-.021 191.459 191.459 0 0 0-14.367.02h-.01zm-9.58 0a417.272 417.272 0 0 1-12.756-.55h-.015a.252.252 0 0 0-.252.252c0 .164.133.297.297.297h12.727zm9.58 22H95.5a.02.02 0 0 0-.02-.021 191.459 191.459 0 0 0-14.367.02h-.01zm-9.58 0a417.272 417.272 0 0 1-12.756-.55h-.015a.252.252 0 0 0-.252.252c0 .164.133.297.297.297h12.727zM58.53 138.874a.032.032 0 0 0-.03.032h30c-3.768-.01-7.643-.124-11.625-.343-1.432-.08-2.563-.079-6.254-.03a247.93 247.93 0 0 1-4.91.03c-1.315-.006-3.711.097-7.181.31zm0 22a.032.032 0 0 0-.03.032h30c-3.768-.01-7.643-.124-11.625-.343-1.432-.08-2.563-.079-6.254-.03a247.93 247.93 0 0 1-4.91.03c-1.315-.006-3.711.097-7.181.31z"/><path fill="#1B5DCD" fill-rule="nonzero" d="M178 102l8-8.59-1.714-4.41s-5.154.716-5.299 1.145c-.145.43-.58 6.156-.653 7.158C178.26 98.305 178 102 178 102"/><path fill="#4F90FF" fill-rule="nonzero" d="M216.756 58.267a.88.88 0 0 0-.935-.213l-54.25 20.073a.873.873 0 0 0-.063 1.61l9.76 4.493a2.63 2.63 0 0 1 1.474 1.864l3.15 15.714a.875.875 0 0 0 1.629.242l4.974-9.213a.865.865 0 0 1 .656-.452.863.863 0 0 1 .75.267l12.336 13.074a.877.877 0 0 0 1.446-.264l19.25-46.255a.872.872 0 0 0-.177-.94z"/><path fill="#286CE0" fill-rule="nonzero" d="M216.614 58L172 85.11c.332.357.577.791.675 1.279l3.173 15.902a.883.883 0 0 0 .734.7.891.891 0 0 0 .906-.455l5.01-9.323c.036-.066.095-.107.143-.16l.008-.04L217 58.226a.876.876 0 0 0-.386-.225z"/><circle cx="157.5" cy="155.5" r="17.5" stroke="#ACBDDC" stroke-width="2"/><path stroke="#ACBDDC" stroke-dasharray="4" stroke-linecap="round" stroke-width="2" d="M150.17 133.663c-9.376-19.071 11.262-9.968 22.139-25.639l2.016-2.361"/><path fill="#42BF8A" fill-rule="nonzero" d="M140.4 150.42c-.884-.81-2.16-2.184-1.35-3.068.81-.885 2.627-.81 3.511 0 2.537 1.498 4.386 2.684 5.547 3.557 1.331 1 3.22 2.624 5.668 4.87.593.645 1.362.16 1.527 0 2.81-3.045 5.305-5.618 7.483-7.72 3.289-3.173 8.847-8.03 16.676-14.572.863-.833 2.22-.863 3.052 0 .833.863.193 1.913-.67 2.746a168.714 168.714 0 0 0-4.765 4.395c-4.136 3.991-10.295 11.463-18.477 22.415a4.778 4.778 0 0 1-6.545.085c-1.861-1.705-4.367-5.31-6.235-7.348-1.003-1.095-2.81-2.881-5.421-5.36z"/><path stroke="#3174E8" stroke-linecap="round" d="M65 105.615c3.16-2.258 8.839-5.647 8.014-9.836-.7-3.556-11.324 6.215-5.389 6.207 2.309-.004 4.6-1.5 6.826-.985 1.519.35 1.218 3.175 2.792 3.206 2.386.046 3.846-2.644 6.188-3.032 1.023-.17 1.46 1.448 2.487 1.597 2.349.339 4.763-.138 7.144-.207"/></g></g></g></svg>