<svg xmlns="http://www.w3.org/2000/svg" xmlns:xlink="http://www.w3.org/1999/xlink" viewBox="0 0 227 219"><defs><path id="a" d="M0 0h240v220H0z"/><path id="c" d="M207 184.189c14.72 0 29.808-11.25 29.06-28.929-.75-17.68-13.596-27.503-29.06-27.503-15.464 0-27.196 12.752-27.196 28.216S192.28 184.189 207 184.189z"/></defs><g fill="none" fill-rule="evenodd" transform="translate(-7 -1)"><mask id="b" fill="#fff"><use xlink:href="#a"/></mask><use fill="#D8D8D8" fill-opacity="0" xlink:href="#a"/><g mask="url(#b)"><g transform="translate(-21 -28)"><path fill="#D6DCE7" d="M172.452 246.082c47.48 20.026 39.702-43.911 73.16-112.74 33.457-68.83-34.232-32.818-112.69-73.238-78.46-40.42-46.573 54.19-73.16 112.74-26.588 58.552 65.21 53.212 112.69 73.238z" opacity=".181"/><path fill="#D6DCE7" d="M145.837 225.024c47.481 20.025 39.702-43.912 73.16-112.741 33.458-68.83-34.231-32.818-112.69-73.237-78.46-40.42-46.573 54.19-73.16 112.74-26.587 58.551 65.21 53.212 112.69 73.238z" opacity=".129"/><path fill="#ACBDDC" fill-rule="nonzero" d="M56 86.546a3 3 0 0 0-3 3v113a3 3 0 0 0 3 3h171a3 3 0 0 0 3-3v-113a3 3 0 0 0-3-3H56zm0-2c27.842.392 47.783.561 59.823.506 33.334-.153 60.243-1.052 80.48-1.052 6.798 0 17.03.182 30.697.546a5 5 0 0 1 5 5c-.398 15.315-.56 25.452-.486 30.41.455 30.492 1.233 44.449.486 54.402-.93 12.38-.93 21.777 0 28.188a5 5 0 0 1-5 5h-16.577c-32.945 0-58.623 1.34-76.389 1.34-17.315 0-43.327-.447-78.034-1.34a5 5 0 0 1-5-5c.344-16.942.516-30.315.516-40.12 0-15.307-.172-39.6-.516-72.88a5 5 0 0 1 5-5z"/><path fill="#ACBDDC" fill-rule="nonzero" d="M68 102a1 1 0 0 0-1 1v14a1 1 0 0 0 1 1h50a1 1 0 0 0 1-1v-14a1 1 0 0 0-1-1H68zm0-2c4.589.476 8.76.714 12.512.714 7.358 0 19.854-.238 37.488-.714a3 3 0 0 1 3 3v14a3 3 0 0 1-3 3c-9.653-.494-16.888-.74-21.706-.74-6.293 0-15.725.246-28.294.74a3 3 0 0 1-3-3v-14a3 3 0 0 1 3-3zm60.396 2a1 1 0 0 0-1 1v91a1 1 0 0 0 1 1h89a1 1 0 0 0 1-1v-91a1 1 0 0 0-1-1h-89zm0-2c27.664.466 46.864.699 57.6.699 9.042 0 19.509-.233 31.4-.699a3 3 0 0 1 3 3c.601 26.134.601 44.537 0 55.21-.53 9.42-.53 21.35 0 35.79a3 3 0 0 1-3 3c-29.7.532-51.96.797-66.78.797-4.958 0-12.364-.265-22.22-.797a3 3 0 0 1-3-3c-.528-19.982-.528-35.149 0-45.5.529-10.351.529-25.518 0-45.5a3 3 0 0 1 3-3zM68 125.41a1 1 0 0 0-1 1v68a1 1 0 0 0 1 1h50a1 1 0 0 0 1-1v-68a1 1 0 0 0-1-1H68zm0-2c14.324.488 24.092.488 29.303 0 5.846-.547 12.745-.547 20.697 0a3 3 0 0 1 3 3c-.459 1.95-.688 9.162-.688 21.635 0 2.638.23 18.093.688 46.365a3 3 0 0 1-3 3c-9.124.564-16.023.845-20.697.845-6.437 0-16.204-.281-29.303-.845a3 3 0 0 1-3-3c.46-13.179.69-23.117.69-29.815 0-8.413-.23-21.142-.69-38.185a3 3 0 0 1 3-3z"/><path stroke="#ACBDDC" stroke-width="2" d="M54.988 85.483V81a4 4 0 0 1 4-4h46.433a4 4 0 0 1 4 4.017l-.023 5.212"/><circle cx="59.5" cy="81.5" r="1.5" fill="#ACBDDC"/><circle cx="65.5" cy="81.5" r="1.5" fill="#ACBDDC"/><circle cx="71.5" cy="81.5" r="1.5" fill="#ACBDDC"/><path stroke="#1B6FFF" d="M85.524 141.05h9.58c-2.586.095-5.78.095-9.58 0zm9.58 0H109.5a.02.02 0 0 0-.02-.021 191.459 191.459 0 0 0-14.367.02h-.01zm-9.58 0a417.19 417.19 0 0 1-12.757-.55h-.015a.252.252 0 0 0-.252.252c0 .164.133.297.297.297h12.727zm0 22h9.58c-2.586.095-5.78.095-9.58 0zm9.58 0H109.5a.02.02 0 0 0-.02-.021 191.459 191.459 0 0 0-14.367.02h-.01zm-9.58 0a417.19 417.19 0 0 1-12.757-.55h-.015a.252.252 0 0 0-.252.252c0 .164.133.297.297.297h12.727zM72.53 148.874a.032.032 0 0 0-.03.032h30c-3.768-.01-7.643-.124-11.625-.343-1.432-.08-2.563-.079-6.254-.03a247.93 247.93 0 0 1-4.91.03c-1.315-.006-3.711.097-7.181.31zm0 22a.032.032 0 0 0-.03.032h30c-3.768-.01-7.643-.124-11.625-.343-1.432-.08-2.563-.079-6.254-.03a247.93 247.93 0 0 1-4.91.03c-1.315-.006-3.711.097-7.181.31z"/><rect width="69" height="32" x="137" y="113" fill="#D5DFF0" rx="2"/><path fill="#F3F4F8" d="M167 132h20v4h-20z"/><path fill="#ACBDDC" fill-rule="nonzero" d="M56 86.546a3 3 0 0 0-3 3v113a3 3 0 0 0 3 3h171a3 3 0 0 0 3-3v-113a3 3 0 0 0-3-3H56zm0-2c27.842.392 47.783.561 59.823.506 33.334-.153 60.243-1.052 80.48-1.052 6.798 0 17.03.182 30.697.546a5 5 0 0 1 5 5c-.398 15.315-.56 25.452-.486 30.41.455 30.492 1.233 44.449.486 54.402-.93 12.38-.93 21.777 0 28.188a5 5 0 0 1-5 5h-16.577c-32.945 0-58.623 1.34-76.389 1.34-17.315 0-43.327-.447-78.034-1.34a5 5 0 0 1-5-5c.344-16.942.516-30.315.516-40.12 0-15.307-.172-39.6-.516-72.88a5 5 0 0 1 5-5z"/><path fill="#ACBDDC" fill-rule="nonzero" d="M68 102a1 1 0 0 0-1 1v14a1 1 0 0 0 1 1h50a1 1 0 0 0 1-1v-14a1 1 0 0 0-1-1H68zm0-2c4.589.476 8.76.714 12.512.714 7.358 0 19.854-.238 37.488-.714a3 3 0 0 1 3 3v14a3 3 0 0 1-3 3c-9.653-.494-16.888-.74-21.706-.74-6.293 0-15.725.246-28.294.74a3 3 0 0 1-3-3v-14a3 3 0 0 1 3-3zm60.396 2a1 1 0 0 0-1 1v91a1 1 0 0 0 1 1h89a1 1 0 0 0 1-1v-91a1 1 0 0 0-1-1h-89zm0-2c27.664.466 46.864.699 57.6.699 9.042 0 19.509-.233 31.4-.699a3 3 0 0 1 3 3c.601 26.134.601 44.537 0 55.21-.53 9.42-.53 21.35 0 35.79a3 3 0 0 1-3 3c-29.7.532-51.96.797-66.78.797-4.958 0-12.364-.265-22.22-.797a3 3 0 0 1-3-3c-.528-19.982-.528-35.149 0-45.5.529-10.351.529-25.518 0-45.5a3 3 0 0 1 3-3zM68 125.41a1 1 0 0 0-1 1v68a1 1 0 0 0 1 1h50a1 1 0 0 0 1-1v-68a1 1 0 0 0-1-1H68zm0-2c14.324.488 24.092.488 29.303 0 5.846-.547 12.745-.547 20.697 0a3 3 0 0 1 3 3c-.459 1.95-.688 9.162-.688 21.635 0 2.638.23 18.093.688 46.365a3 3 0 0 1-3 3c-9.124.564-16.023.845-20.697.845-6.437 0-16.204-.281-29.303-.845a3 3 0 0 1-3-3c.46-13.179.69-23.117.69-29.815 0-8.413-.23-21.142-.69-38.185a3 3 0 0 1 3-3z"/><path stroke="#ACBDDC" stroke-width="2" d="M54.988 85.483V81a4 4 0 0 1 4-4h46.433a4 4 0 0 1 4 4.017l-.023 5.212"/><circle cx="59.5" cy="81.5" r="1.5" fill="#ACBDDC"/><circle cx="65.5" cy="81.5" r="1.5" fill="#ACBDDC"/><circle cx="71.5" cy="81.5" r="1.5" fill="#ACBDDC"/><path stroke="#3174E8" d="M85.524 141.05h9.58c-2.586.095-5.78.095-9.58 0zm9.58 0H109.5a.02.02 0 0 0-.02-.021 191.459 191.459 0 0 0-14.367.02h-.01zm-9.58 0a417.19 417.19 0 0 1-12.757-.55h-.015a.252.252 0 0 0-.252.252c0 .164.133.297.297.297h12.727zm0 22h9.58c-2.586.095-5.78.095-9.58 0zm9.58 0H109.5a.02.02 0 0 0-.02-.021 191.459 191.459 0 0 0-14.367.02h-.01zm-9.58 0a417.19 417.19 0 0 1-12.757-.55h-.015a.252.252 0 0 0-.252.252c0 .164.133.297.297.297h12.727zM72.53 148.874a.032.032 0 0 0-.03.032h30c-3.768-.01-7.643-.124-11.625-.343-1.432-.08-2.563-.079-6.254-.03a247.93 247.93 0 0 1-4.91.03c-1.315-.006-3.711.097-7.181.31zm0 22a.032.032 0 0 0-.03.032h30c-3.768-.01-7.643-.124-11.625-.343-1.432-.08-2.563-.079-6.254-.03a247.93 247.93 0 0 1-4.91.03c-1.315-.006-3.711.097-7.181.31z"/><rect width="69" height="32" x="137" y="151" fill="#D5DFF0" rx="2"/><path fill="#F3F4F8" d="M167 170h25v4h-25zm0-9h30v4h-30z"/><path fill="#4F90FF" fill-rule="nonzero" stroke="#4F90FF" stroke-width="2" d="M251.59 200.507l-21.85-22.757c5.573-5.597 9.026-13.314 9.026-21.825 0-17.053-13.853-30.925-30.882-30.925-17.03 0-30.883 13.872-30.883 30.925 0 17.054 13.853 30.926 30.883 30.926 7.475 0 14.335-2.676 19.682-7.116l21.905 22.813a1.466 1.466 0 0 0 2.08.041 1.475 1.475 0 0 0 .04-2.082zm-43.707-16.601c-15.408 0-27.942-12.552-27.942-27.98 0-15.43 12.534-27.98 27.942-27.98 15.407 0 27.94 12.55 27.94 27.98 0 15.428-12.534 27.98-27.94 27.98z"/><path stroke="#3174E8" stroke-linecap="round" d="M78 115.615c3.16-2.258 8.839-5.647 8.014-9.836-.7-3.556-11.324 6.215-5.389 6.207 2.309-.004 4.6-1.5 6.826-.985 1.519.35 1.218 3.175 2.792 3.206 2.386.046 3.846-2.644 6.188-3.032 1.023-.17 1.46 1.448 2.487 1.597 2.349.339 4.763-.138 7.144-.207"/><path fill="#466DB0" fill-rule="nonzero" d="M149.024 173.68l-2.984 1.628a2.681 2.681 0 0 0-.479.34A9.954 9.954 0 0 0 152 178a9.96 9.96 0 0 0 6.402-2.318 2.647 2.647 0 0 0-.527-.353l-3.195-1.597a1.218 1.218 0 0 1-.673-1.09v-1.254c.09-.102.192-.233.302-.388a7.352 7.352 0 0 0 .993-2.002c.41-.126.712-.505.712-.955v-1.338a.999.999 0 0 0-.334-.741v-1.935s.397-3.01-3.68-3.01c-4.076 0-3.679 3.01-3.679 3.01v1.935a.998.998 0 0 0-.334.741v1.338c0 .353.185.663.462.842a6.64 6.64 0 0 0 1.21 2.503v1.223c0 .445-.244.855-.635 1.069z"/><path fill="#F3F4F8" fill-rule="nonzero" d="M152.17 158.002c-5.52-.095-10.074 4.305-10.168 9.827a9.97 9.97 0 0 0 3.563 7.816 2.63 2.63 0 0 1 .475-.337l2.983-1.628c.392-.213.635-.623.635-1.07v-1.222s-.875-1.048-1.21-2.503a1.004 1.004 0 0 1-.462-.842v-1.338c0-.294.131-.557.334-.742v-1.934s-.397-3.01 3.68-3.01c4.076 0 3.679 3.01 3.679 3.01v1.934a.998.998 0 0 1 .334.742v1.338c0 .45-.302.828-.711.955a7.352 7.352 0 0 1-.994 2.001 4.81 4.81 0 0 1-.302.389v1.254c0 .461.26.883.674 1.09l3.195 1.597c.191.096.365.217.524.351a9.974 9.974 0 0 0 3.599-7.51c.095-5.52-4.305-10.074-9.827-10.168z"/><path fill="#466DB0" fill-rule="nonzero" d="M149.024 134.68l-2.984 1.628a2.681 2.681 0 0 0-.479.34A9.954 9.954 0 0 0 152 139a9.96 9.96 0 0 0 6.402-2.318 2.647 2.647 0 0 0-.527-.353l-3.195-1.597a1.218 1.218 0 0 1-.673-1.09v-1.254c.09-.102.192-.233.302-.388a7.352 7.352 0 0 0 .993-2.002c.41-.126.712-.505.712-.955v-1.338a.999.999 0 0 0-.334-.741v-1.935s.397-3.01-3.68-3.01c-4.076 0-3.679 3.01-3.679 3.01v1.935a.998.998 0 0 0-.334.741v1.338c0 .353.185.663.462.842a6.64 6.64 0 0 0 1.21 2.503v1.223c0 .445-.244.855-.635 1.069z"/><path fill="#F3F4F8" fill-rule="nonzero" d="M152.17 119.002c-5.52-.095-10.074 4.305-10.168 9.827a9.97 9.97 0 0 0 3.563 7.816 2.63 2.63 0 0 1 .475-.337l2.983-1.628c.392-.213.635-.623.635-1.07v-1.222s-.875-1.048-1.21-2.503a1.004 1.004 0 0 1-.462-.842v-1.338c0-.294.131-.557.334-.742v-1.934s-.397-3.01 3.68-3.01c4.076 0 3.679 3.01 3.679 3.01v1.934a.998.998 0 0 1 .334.742v1.338c0 .45-.302.828-.711.955a7.352 7.352 0 0 1-.994 2.001 4.81 4.81 0 0 1-.302.389v1.254c0 .461.26.883.674 1.09l3.195 1.597c.191.096.365.217.524.351a9.974 9.974 0 0 0 3.599-7.51c.095-5.52-4.305-10.074-9.827-10.168z"/><path fill="#F3F4F8" d="M167 123h25v4h-25z"/><mask id="d" fill="#fff"><use xlink:href="#c"/></mask><use fill="#F8F9FB" xlink:href="#c"/><path fill="#D5DFF0" d="M182.256 142.111h40.704a3 3 0 0 1 3 3v32.383c-12.348 9.378-24.654 9.622-36.918.73-5.873-5.265-8.63-12.993-9.21-20.172-.425-5.497.383-10.81 2.424-15.94z" mask="url(#d)"/><path fill="#FFF" d="M183.615 170h8.993a3.562 3.562 0 0 1 1.735 6.672c-1.63.91-3.43.91-5.403 0-1.008-.916-1.832-1.757-2.472-2.525-.64-.767-1.59-2.15-2.853-4.147z" mask="url(#d)"/><ellipse cx="213.161" cy="147.567" fill="#3174E8" fill-rule="nonzero" mask="url(#d)" rx="3.56" ry="3.534"/><path fill="#3174E8" fill-rule="nonzero" d="M213.161 152.028c-3.932 0-7.12 3.164-7.12 7.068.108 1.141 2.949.855 7.12.855 1.706 0 4.053-.093 7.042-.279 0-3.903-3.11-7.644-7.042-7.644z" mask="url(#d)"/><ellipse cx="219.114" cy="157.271" fill="#42BF8A" fill-rule="nonzero" mask="url(#d)" rx="4.114" ry="4.271"/><path fill="#FFF" fill-rule="nonzero" d="M220.86 156.768h-1.109v-1.15a.484.484 0 0 0-.474-.493.484.484 0 0 0-.475.493v1.15h-1.108a.484.484 0 0 0-.474.493c0 .272.212.493.474.493h1.108v1.15c0 .272.213.492.475.492s.474-.22.474-.493v-1.15h1.108c.262 0 .475-.22.475-.492a.484.484 0 0 0-.475-.493z" mask="url(#d)"/><path fill="#FFF" d="M178.605 156h18.815a3.336 3.336 0 0 1 0 6.672h-18.205c.125-.602.125-1.44 0-2.513-.066-.569-.46-1.669-.507-2.322a87.362 87.362 0 0 1-.103-1.837z" mask="url(#d)"/><path fill="#D5DFF0" d="M185.177 138.365h36.569a3 3 0 0 0 3-3v-2.752c-5.306-3.126-10.92-4.735-16.844-4.828-9.611.038-17.186 3.565-22.725 10.58z" mask="url(#d)"/><circle cx="201.5" cy="117.5" r="1.5" fill="#4F90FF" mask="url(#d)"/></g></g></g></svg>