<svg xmlns="http://www.w3.org/2000/svg" xmlns:xlink="http://www.w3.org/1999/xlink" viewBox="0 0 227 219"><defs><path id="a" d="M0 0h240v220H0z"/><path id="c" d="M140.677 158.107c9.36 1.096 16.5 1.45 21.417 1.06 4.817-.38 9.43-.41 13.838-.085A1.152 1.152 0 0 1 177 160.23c0 .587-.476 1.063-1.063 1.063h-35.243A1.694 1.694 0 0 1 139 159.6a1.503 1.503 0 0 1 1.677-1.493z"/><path id="d" d="M140.688 177.004c15.788 1.156 27.785 1.535 35.992 1.136 8.106-.393 15.858-.41 23.255-.054a1.12 1.12 0 0 1 1.065 1.118c0 .587-.476 1.063-1.063 1.063h-59.243a1.694 1.694 0 0 1-1.694-1.694 1.573 1.573 0 0 1 1.688-1.569z"/><path id="e" d="M140.066 168.795c6.924-.453 11.711-.673 14.36-.66 9.459.049 16.802-.327 22.378 0 7.924.465 15.634.708 23.13.73a1.067 1.067 0 1 1-.002 2.136L150.473 171h-10.406c-.59 0-1.067-.478-1.067-1.067 0-.6.466-1.098 1.066-1.138z"/></defs><g fill="none" fill-rule="evenodd" transform="translate(-7 -1)"><mask id="b" fill="#fff"><use xlink:href="#a"/></mask><use fill="#D8D8D8" fill-opacity="0" xlink:href="#a"/><g mask="url(#b)"><g transform="translate(-21 -28)"><rect width="30" height="28" x="139" y="112" fill="#D5DFF0" rx="2"/><rect width="68" height="4" x="139" y="144" fill="#D5DFF0" rx="2"/><path fill="#466DB0" fill-rule="nonzero" d="M151.024 131.68l-2.984 1.628a2.681 2.681 0 0 0-.479.34A9.954 9.954 0 0 0 154 136a9.96 9.96 0 0 0 6.402-2.318 2.647 2.647 0 0 0-.527-.353l-3.195-1.597a1.218 1.218 0 0 1-.673-1.09v-1.254c.09-.102.192-.233.302-.388a7.352 7.352 0 0 0 .993-2.002c.41-.126.712-.505.712-.955v-1.338a.999.999 0 0 0-.334-.741v-1.935s.397-3.01-3.68-3.01c-4.076 0-3.679 3.01-3.679 3.01v1.935a.998.998 0 0 0-.334.741v1.338c0 .353.185.663.462.842a6.645 6.645 0 0 0 1.21 2.503v1.223c0 .445-.244.855-.635 1.069z"/><path fill="#F3F4F8" fill-rule="nonzero" d="M154.17 116.002c-5.52-.095-10.074 4.305-10.168 9.827a9.97 9.97 0 0 0 3.563 7.816 2.63 2.63 0 0 1 .475-.337l2.983-1.628c.392-.213.635-.623.635-1.07v-1.222s-.875-1.048-1.21-2.503a1.004 1.004 0 0 1-.462-.842v-1.338c0-.294.131-.557.334-.742v-1.934s-.397-3.01 3.68-3.01c4.076 0 3.679 3.01 3.679 3.01v1.934a.998.998 0 0 1 .334.742v1.338c0 .45-.302.828-.711.955a7.352 7.352 0 0 1-.994 2.001 4.81 4.81 0 0 1-.302.389v1.254c0 .461.26.883.674 1.09l3.195 1.597c.191.096.365.217.524.351a9.974 9.974 0 0 0 3.599-7.51c.095-5.52-4.305-10.074-9.827-10.168z"/><path fill="#D6DCE7" d="M172.452 246.082c47.48 20.026 39.702-43.911 73.16-112.74 33.457-68.83-34.232-32.818-112.69-73.238-78.46-40.42-46.573 54.19-73.16 112.74-26.588 58.552 65.21 53.212 112.69 73.238z" opacity=".181"/><path fill="#D6DCE7" d="M145.837 225.024c47.481 20.025 39.702-43.912 73.16-112.741 33.458-68.83-34.231-32.818-112.69-73.237-78.46-40.42-46.573 54.19-73.16 112.74-26.587 58.551 65.21 53.212 112.69 73.238z" opacity=".129"/><path fill="#ACBDDC" fill-rule="nonzero" d="M56 85.546a3 3 0 0 0-3 3v113a3 3 0 0 0 3 3h171a3 3 0 0 0 3-3v-113a3 3 0 0 0-3-3H56zm0-2c27.842.392 47.783.561 59.823.506 33.334-.153 60.243-1.052 80.48-1.052 6.798 0 17.03.182 30.697.546a5 5 0 0 1 5 5c-.398 15.315-.56 25.452-.486 30.41.455 30.492 1.233 44.449.486 54.402-.93 12.38-.93 21.777 0 28.188a5 5 0 0 1-5 5h-16.577c-32.945 0-58.623 1.34-76.389 1.34-17.315 0-43.327-.447-78.034-1.34a5 5 0 0 1-5-5c.344-16.942.516-30.315.516-40.12 0-15.307-.172-39.6-.516-72.88a5 5 0 0 1 5-5z"/><path fill="#ACBDDC" fill-rule="nonzero" d="M68 101a1 1 0 0 0-1 1v14a1 1 0 0 0 1 1h50a1 1 0 0 0 1-1v-14a1 1 0 0 0-1-1H68zm0-2c4.589.476 8.76.714 12.512.714 7.358 0 19.854-.238 37.488-.714a3 3 0 0 1 3 3v14a3 3 0 0 1-3 3c-9.653-.494-16.888-.74-21.706-.74-6.293 0-15.725.246-28.294.74a3 3 0 0 1-3-3v-14a3 3 0 0 1 3-3zm60.396 2a1 1 0 0 0-1 1v91a1 1 0 0 0 1 1h89a1 1 0 0 0 1-1v-91a1 1 0 0 0-1-1h-89zm0-2c27.664.466 46.864.699 57.6.699 9.042 0 19.509-.233 31.4-.699a3 3 0 0 1 3 3c.601 26.134.601 44.537 0 55.21-.53 9.42-.53 21.35 0 35.79a3 3 0 0 1-3 3c-29.7.532-51.96.797-66.78.797-4.958 0-12.364-.265-22.22-.797a3 3 0 0 1-3-3c-.528-19.982-.528-35.149 0-45.5.529-10.351.529-25.518 0-45.5a3 3 0 0 1 3-3zM68 124.41a1 1 0 0 0-1 1v68a1 1 0 0 0 1 1h50a1 1 0 0 0 1-1v-68a1 1 0 0 0-1-1H68zm0-2c14.324.488 24.092.488 29.303 0 5.846-.547 12.745-.547 20.697 0a3 3 0 0 1 3 3c-.459 1.95-.688 9.162-.688 21.635 0 2.638.23 18.093.688 46.365a3 3 0 0 1-3 3c-9.124.564-16.023.845-20.697.845-6.437 0-16.204-.281-29.303-.845a3 3 0 0 1-3-3c.46-13.179.69-23.117.69-29.815 0-8.413-.23-21.142-.69-38.185a3 3 0 0 1 3-3z"/><path stroke="#ACBDDC" stroke-width="2" d="M54.988 84.483V80a4 4 0 0 1 4-4h46.433a4 4 0 0 1 4 4.017l-.023 5.212"/><circle cx="59.5" cy="80.5" r="1.5" fill="#ACBDDC"/><circle cx="65.5" cy="80.5" r="1.5" fill="#ACBDDC"/><circle cx="71.5" cy="80.5" r="1.5" fill="#ACBDDC"/><path stroke="#3174E8" d="M95.103 140.05H109.5a.02.02 0 0 0-.02-.021 191.459 191.459 0 0 0-14.367.02h-.01zm-9.58 0a417.272 417.272 0 0 1-12.756-.55h-.015a.252.252 0 0 0-.252.252c0 .164.133.297.297.297h12.727z"/><use fill="#7F9ED5" xlink:href="#c"/><path stroke="#7F9ED5" d="M140.62 158.604a1.003 1.003 0 0 0-1.12.996c0 .66.535 1.194 1.194 1.194h35.243a.563.563 0 0 0 .563-.563.652.652 0 0 0-.604-.65c-4.383-.323-8.97-.294-13.763.085-4.956.392-12.124.038-21.514-1.062z"/><use fill="#7F9ED5" xlink:href="#d"/><path stroke="#7F9ED5" d="M140.651 177.503a1.073 1.073 0 0 0-1.151 1.07c0 .66.535 1.194 1.194 1.194h59.243a.563.563 0 0 0 .563-.563.62.62 0 0 0-.589-.618c-7.38-.357-15.116-.339-23.207.054-8.23.4-20.246.02-36.053-1.137z"/><path stroke="#3174E8" d="M85.524 162.05h9.58c-2.586.095-5.78.095-9.58 0zm9.58 0H109.5a.02.02 0 0 0-.02-.021 191.459 191.459 0 0 0-14.367.02h-.01zm-9.58 0a417.19 417.19 0 0 1-12.757-.55h-.015a.252.252 0 0 0-.252.252c0 .164.133.297.297.297h12.727zM72.53 147.874a.032.032 0 0 0-.03.032h30c-3.768-.01-7.643-.124-11.625-.343-1.432-.08-2.563-.079-6.254-.03a247.93 247.93 0 0 1-4.91.03c-1.315-.006-3.711.097-7.181.31z"/><use fill="#7F9ED5" xlink:href="#e"/><path stroke="#7F9ED5" d="M140.098 169.294a.64.64 0 0 0-.598.639c0 .313.254.567.567.567h59.866a.567.567 0 0 0 0-1.136 415.411 415.411 0 0 1-23.158-.73c-2.88-.169-5.144-.168-12.538-.064-4.276.06-6.813.08-9.813.065-2.634-.013-7.413.206-14.326.66z"/><path stroke="#3174E8" d="M72.53 169.874a.032.032 0 0 0-.03.032h30c-3.768-.01-7.643-.124-11.625-.343-1.432-.08-2.563-.079-6.254-.03a247.93 247.93 0 0 1-4.91.03c-1.315-.006-3.711.097-7.181.31z"/><path stroke="#3174E8" stroke-linecap="round" d="M78 114.615c3.16-2.258 8.839-5.647 8.014-9.836-.7-3.556-11.324 6.215-5.389 6.207 2.309-.004 4.6-1.5 6.826-.985 1.519.35 1.218 3.175 2.792 3.206 2.386.046 3.846-2.644 6.188-3.032 1.023-.17 1.46 1.448 2.487 1.597 2.349.339 4.763-.138 7.144-.207"/><path fill="#466DB0" fill-rule="nonzero" d="M207 123.802c0-6.508 5.383-11.802 12-11.802h18c6.617 0 12 5.294 12 11.802v10.326c0 6.258-4.983 11.38-11.25 11.764-.834.02-1.5.703-1.5 1.538v4.14a.6.6 0 0 1-1.02.428c-3.979-3.913-9.268-6.069-14.894-6.069H219c-6.617 0-12-5.294-12-11.801v-10.326z"/><ellipse cx="231.077" cy="129.5" fill="#FFF" rx="2.538" ry="2.5"/><ellipse cx="222.615" cy="129.5" fill="#FFF" rx="2.538" ry="2.5"/><path fill="#4F90FF" fill-rule="nonzero" d="M239 108.543C239 99.973 231.822 93 223 93h-24c-8.822 0-16 6.973-16 15.543v13.601c0 8.243 6.644 14.989 15 15.494a2.05 2.05 0 0 1 2 2.05v5.417a.8.8 0 0 0 1.359.575c5.306-5.154 12.359-7.992 19.86-7.992H223c8.822 0 16-6.974 16-15.544v-13.6z"/><ellipse cx="199.8" cy="116.143" fill="#FFF" rx="3.36" ry="3.306"/><ellipse cx="211" cy="116.143" fill="#FFF" rx="3.36" ry="3.306"/><ellipse cx="222.2" cy="116.143" fill="#FFF" rx="3.36" ry="3.306"/></g></g></g></svg>