<svg xmlns="http://www.w3.org/2000/svg" xmlns:xlink="http://www.w3.org/1999/xlink" viewBox="0 0 639 578"><defs><path id="b" d="M54.141.364h214.237a2.436 2.436 0 0 1 2.436 2.436v254.31l-20.637 7.188 2.797 2.83a2.436 2.436 0 0 1-1.732 4.15H2.724a2.436 2.436 0 0 1-.89-4.704l47.48-18.642L51.705 2.776A2.436 2.436 0 0 1 54.141.364z"/><filter id="a" width="108.1%" height="108.1%" x="-4.1%" y="-3.7%" filterUnits="objectBoundingBox"><feOffset dy="1" in="SourceAlpha" result="shadowOffsetOuter1"/><feGaussianBlur in="shadowOffsetOuter1" result="shadowBlurOuter1" stdDeviation="3.5"/><feColorMatrix in="shadowBlurOuter1" values="0 0 0 0 0 0 0 0 0 0 0 0 0 0 0 0 0 0 0.05 0"/></filter></defs><g fill="none" fill-rule="evenodd"><g fill-rule="nonzero"><path fill="#F1F4F7" d="M294.481 73.206S284.882 16.894 259.829 0c0 0-40.344 30.038-45.477 31.913 0 0 43.041 27.609 44.072 65.434-.008-.016 24.68-25.083 36.057-24.141z"/><path fill="#E6EEF3" d="M275.21 89.235c3.04-9.908-1.52-53.794 24.386-67.94l34.442 14.154s-12.608 5.662-19.72 26.893c-7.113 21.231-9.674 26.893-9.674 26.893H275.21z"/><path fill="#8C9AAF" d="M236.5 35.491a.802.802 0 0 1-.662-.346.811.811 0 0 1-.093-.744 32.843 32.843 0 0 0 1.253-4.313c-1.655-1.373-2.603-3.15-2.306-4.443a1.891 1.891 0 0 1 1.696-1.453 1.987 1.987 0 0 1 1.952.694c.739.921.723 2.69.434 4.507a6.4 6.4 0 0 0 7.448-.226c.474-.34 1.052-.856 1.076-1.405a2.344 2.344 0 0 0-.972-1.616 1.621 1.621 0 0 1-.434-1.874 1.606 1.606 0 0 1 1.615-.985c4.017.307 13.49.485 14.968-4.458a.805.805 0 1 1 1.543.468c-1.752 5.848-11.168 6.017-16.631 5.597a3.94 3.94 0 0 1 1.478 2.94 3.554 3.554 0 0 1-1.76 2.641 7.872 7.872 0 0 1-8.709.582 36.49 36.49 0 0 1-1.173 3.893.804.804 0 0 1-.723.541zm.273-9.692h-.16c-.322.048-.346.153-.362.218a3.164 3.164 0 0 0 1.06 2.157 3.587 3.587 0 0 0-.224-2.262.337.337 0 0 0-.314-.137v.024z"/><path fill="#B2BCCC" d="M313.511 44.616c-3.237 0-6.46-3.38-8.818-6.633a2.51 2.51 0 0 1-.934 1.769 2.737 2.737 0 0 1-2.438.253 5.937 5.937 0 0 1-4.362-4.414c-.796.37-1.61.699-2.439.987a.79.79 0 1 1-.522-1.492c.954-.33 1.885-.724 2.787-1.177 0-1.58.625-2.89 1.512-3.333a1.586 1.586 0 0 1 1.812.316c.463.385.681.989.57 1.58-.174.86-1.132 1.666-2.256 2.368a4.323 4.323 0 0 0 3.325 3.664 1.36 1.36 0 0 0 1.069 0c.254-.297.374-.685.332-1.074a1.359 1.359 0 0 1 .99-1.279 1.403 1.403 0 0 1 1.583.537c1.583 2.298 5.723 7.494 8.961 6.151a.795.795 0 0 1 1.091.833.791.791 0 0 1-.481.628 4.514 4.514 0 0 1-1.782.316zm-14.557-12.634c-.221.244-.37.545-.428.869.38-.293.602-.537.602-.703a.482.482 0 0 0-.087-.095.332.332 0 0 0-.087-.063v-.008z"/><path fill="#B6BECC" d="M246.812 47.253v-5.315l-.885.365a27.266 27.266 0 0 0 5.925 4.145.52.52 0 0 0 .71-.182 7.712 7.712 0 0 0 .876-3.142l-.958.265c.512.829 1.008 1.658 2.198 1.194 1.19-.464.677-1.343.917-2.255a5.313 5.313 0 0 1 1.545-3.002c.562-.556 1.14-.547 1.652-1.252a2.635 2.635 0 0 0 .298-3.184c-.24-.49-.934-.216-.959.265a2.576 2.576 0 0 0 .624 2.028c.489.554 1.192.87 1.93.866 1.107.083 2.173-.613 3.123-1.061a21.17 21.17 0 0 1 8.874-2.488c.661 0 .67-1.07 0-1.036a20.773 20.773 0 0 0-5.784 1.003c-1.214.406-7.924 4.005-7.725.697l-.959.265c1.355 2.736-3.512 3.217-4.131 4.975-.042.124-.149.771-.24.995.355-.929.752 3.408-.463 1.45a.52.52 0 0 0-.958.266c-.314 4.096-4.776-.696-5.743-1.592a.52.52 0 0 0-.884.365v5.315a.521.521 0 0 0 1.033 0l-.016.05zm43.407 1.11l2.997-2.863-.853-.363a23.91 23.91 0 0 0 .797 5.775.5.5 0 0 0 .614.363 4.545 4.545 0 0 0 2.16-1.138l-.734-.586c-.19.742-.398 1.493.439 1.996 1.156.702 1.156-.33 1.937-.635a.393.393 0 0 0 .087-.173c0-1.067.702-1.274 2.105-.619.964.09.956.512 1.92.38.94-.03 1.742-.706 1.961-1.65.192-.529-.494-.826-.797-.504-.465.36-.764.907-.823 1.505-.059.6.127 1.196.513 1.647a4.604 4.604 0 0 0 1.865 1.163c2.39 1.172 4.487 1.997 6.464 3.977.462.462 1.164-.264.701-.726a16.837 16.837 0 0 0-3.26-2.648c-.852-.512-6.376-2.83-4.782-4.192l-.797-.503c-.502 1.37-3.85 0-4.958.214-.303.066-1.65 1.312-1.594 1.015.056-.297-.367-.825-.733-.586-2.392 1.766-2.017-3.102-2.033-4.084a.52.52 0 0 0-.311-.471.49.49 0 0 0-.542.108l-2.997 2.863c-.47.454.231 1.18.702.726l-.048.009z"/></g><path fill="#E9F0F2" fill-rule="nonzero" d="M194.76 548.55c-87.207 6.614-122.792-16.58-156.238-72.19-44.5-73.99-62.764-180.73 21.802-233.148 89.678-55.587 2.213-44.878 70.25-123.311 34.011-39.217 107.338-38.338 191.816-22.395 0 0 198.873 42.693 245.092 80.32 29.764 24.194 88.12 71.483 67.02 151.126-1.525 5.742-6.378 21.773-9.77 26.95-10.222 15.694-34.721 57.33-29.723 88.652 6.315 39.353-9.027 114.02-125.239 106.561-164.79-10.564-166.582-10.79-275.01-2.564z"/><g transform="translate(80.129 64.391)"><use fill="#000" filter="url(#a)" xlink:href="#b"/><use fill="#FFF" xlink:href="#b"/><rect width="128.814" height="9.802" x="74.685" y="19.503" fill="#F1F4FB" rx="1.827"/><rect width="102.574" height="7.624" x="74.685" y="36.385" fill="#F1F4FB" rx="1.827"/><rect width="78.506" height="7.301" x="105.891" y="75.951" fill="#F1F4FB" rx="1.827"/><rect width="78.506" height="7.301" x="105.891" y="166.606" fill="#F1F4FB" rx="1.827"/><rect width="78.506" height="7.301" x="105.891" y="212.846" fill="#F1F4FB" rx="1.827"/><rect width="73.029" height="5.476" x="105.891" y="88.12" fill="#F1F4FB" rx="1.827"/><rect width="73.029" height="5.476" x="105.891" y="178.774" fill="#F1F4FB" rx="1.827"/><rect width="73.029" height="5.476" x="105.891" y="225.014" fill="#F1F4FB" rx="1.827"/><path fill="#F5F8F9" d="M51.729 108.198h219.086v45.632H51.729z"/><path stroke="#D6DCE7" stroke-width=".609" d="M51.729 63.174h219.085M51.729 107.893h219.085M51.729 152.916h219.085M51.729 197.94h219.085"/><rect width="22.651" height="22.645" x=".846" y=".846" stroke="#2A3F68" stroke-width="1.692" rx="11.323" transform="translate(71.203 73.518)"/><rect width="22.651" height="22.645" x=".846" y=".846" stroke="#1B6FFF" stroke-width="1.692" rx="11.323" transform="translate(71.203 118.54)"/><rect width="22.651" height="22.645" x=".846" y=".846" stroke="#F23D3D" stroke-width="1.692" rx="11.323" transform="translate(71.203 163.564)"/><rect width="22.651" height="22.645" x=".846" y=".846" stroke="#FE9923" stroke-width="1.692" rx="11.323" transform="translate(71.203 208.587)"/><rect width="105.283" height="7.301" x="105.891" y="122.8" fill="#E1E5EE" rx="1.827"/><rect width="97.98" height="5.476" x="105.891" y="134.968" fill="#E1E5EE" rx="1.827"/></g><g fill-rule="nonzero"><path fill="#42BF8A" d="M162.915 245.058a2.257 2.257 0 0 1-1.579-.651l-5.367-5.303a1.532 1.532 0 0 1 1.074-2.611c.403 0 .789.162 1.073.449l3.946 3.887c.545.542 1.405.59 2.005.112l13.511-10.764a1.508 1.508 0 0 1 2.131.254 1.534 1.534 0 0 1-.252 2.147l-15.145 11.996a2.25 2.25 0 0 1-1.397.484zm0 44.787a2.257 2.257 0 0 1-1.579-.652l-5.367-5.302a1.532 1.532 0 0 1 1.074-2.611c.403 0 .789.161 1.073.448l3.946 3.888c.545.541 1.405.59 2.005.111l13.511-10.764a1.508 1.508 0 0 1 2.131.255 1.534 1.534 0 0 1-.252 2.146l-15.145 11.996c-.399.315-.89.486-1.397.485z"/><path fill="#92A9FC" d="M517.421 282.916l-22.45-20.478 6.104-30.151 31.379-7.171 18.303 33.46-4.934 14.667-28.402 9.673zm-20.69-21.04l21.04 19.198 26.819-9.086 4.44-13.234-17.38-31.78-29.222 6.674-5.698 28.227zM182.96 446.175l-5.46-6.45 2.723-8.148 8.268-1.626 5.238 7.6-6.348 8.355-4.42.27zm-3.725-6.767l4.374 5.165 2.977-.199 5.214-6.87-3.995-5.8-6.425 1.286-2.145 6.418z"/><path fill="#364051" d="M516.927 254.73l-2.284.245c-7.26 5.522-10.258 12.835-12.831 21.37l-8.967 29.783a237.742 237.742 0 0 1-21.009 49.02l-23.522 41.34 28.872-5.701c15.03 2.125 71.925-137.506 41.355-137.278"/><path fill="#E28F8F" d="M267.297 485.621l-.54 28.495 19.568-1.724 2.746-28.697zm33.946 29.185l1.363 19.59h18.779l2.172-22.308z"/><path fill="#2A3F68" d="M290.086 294.768c.621 1.445 6.499-1.2 8.53 6.4l55.649-3.2 17.978-22.36-2.95-44.408-11.779 28.264s-7.311 3.816-11.373 9.376c-4.062 5.56-29.246 17.96-29.246 17.96s-8.53 1.2-11.374 3.2c-2.843 2-16.057 3.324-15.435 4.768z"/><path fill="#203153" d="M371.901 212.211s-14.402 48.438-15.116 80.153c-.714 31.716-1.785 51.01-1.785 51.01s18.073 5.13 18.687.427c.614-4.703 2.613-143.022 2.613-143.022l-4.399 11.432z"/><path fill="#3D5FD8" d="M386.695 338.937c13.132 7.415-24.347 27.381-24.347 27.381l-68.637 11.435 1.437 46.684a81.104 81.104 0 0 1-1.144 16.278l-1.72 56.84a5.55 5.55 0 0 1-5.048 4.9l-21.507 1.843a3.14 3.14 0 0 1-2.364-.79 3.117 3.117 0 0 1-1.037-2.258c-.227-11.613-5.52-52.14-5.706-73.942-.195-22.643 3.465-36.9 3.197-55.725 0-1.893 1.283-5.216 1.437-6.939.73-8.24 2.386-12.865 8.927-14.903 14.666-8.402 105.222-15.54 110.1-16.308l6.412 5.504z"/><path fill="#484E54" d="M267.341 509.186v-.575c-1.592-.077-3.028.348-3.461 1.836l-1.576 3.94a3.759 3.759 0 0 1-1.552 1.789c-5.03 3.065-25.661 15.595-27.79 16.123-1.625.41-13.09 3.885-20.217 6.052-2.795.85-3.713 3.94-1.714 5.878 1.739 1.655 3.6 3.208 4.607 3.373 1.219.197 9.75.599 17.194.922 7.33.315 14.667-.45 21.76-2.27 5.745-1.473 13.001-3.207 19.242-4.294 1.503-.26.658 1.576 2.072 1.332 6.907-1.175 12.513-2.026 13.61-1.915 3.202.315 1.016-2.459 2.365-13.578 1.024-8.471-2.574-15.863-4.98-18.613-.739-.843-.24 1.922-1.443 1.89 0 0-8.577 1.885-13.883 1.499-4.542-.331-4.234-3.389-4.234-3.389z"/><path fill="#484E54" d="M320.595 528.929c1.196 0 .913-2.601 2.424-1.233 2.894 2.617 6.821 12.006 6.36 21.45-.614 12.406 1.738 15.375-1.462 15.207-1.091-.064-6.466 3.578-13.4 2.777-2.206-.256-.679-1.745-2.15-1.384-6.174 1.512-13.351 3.81-18.984 5.73a64.983 64.983 0 0 1-20.94 3.482c-7.525 0-16.286 0-17.53-.208-1.407-.192-4.607-3.258-6.805-5.523a2.21 2.21 0 0 1-.569-2.018 2.231 2.231 0 0 1 1.377-1.591c6.312-2.506 20.399-8.076 22.233-8.684 2.158-.72 23.244-16.68 27.034-19.561.386-.287.67-.688.809-1.145l2.238-7.523a1.149 1.149 0 0 1 1.39-.8l.914.728.945.464c5.132 1.304 10.782.8 15.994-.136l.122-.032z"/><path fill="#4E72F1" d="M285.369 394.749c1.358 8.794-2.425 21.193 4.251 56.76 4.688 24.92 8.228 55.4 9.546 67.469a5.917 5.917 0 0 0 5.884 5.278h15.122c3.04 0 9.247-1.422 9.554-4.446.525-5.197.153-19.852 2.877-37.521 3.936-25.592-1.398-56.267-2.756-68.4a4.478 4.478 0 0 1 4.041-4.963c35.854-3.492 118.401 1.73 128.868-15.196 11.793-19.076 6.062-39.276 7.873-32.155l-7.065-23.901s-92.035 11.179-142.794 24.653c-.024-.008-39.903 3.225-35.401 32.422z"/><path fill="#E28F8F" d="M328.629 127.894s.856 18.335 4.576 20.605c3.72 2.271 1.412 9.026 1.412 11.708 0 2.68-3.151 11.022 3.707 9.106 4.324-1.264 4.006-.263 4.326.928.32 1.191.372 2.257.381 2.365.046.52.084 1.474.423 1.979.41.61 2.327.439 2.327.439s-1.416 1.138-.947 2.13c.47.994 1.163.802 1.757 1.047 3.66-.525 1.11 4.711 4.316 8.773 3.393 2.237 10.545.683 16.595-2.74l11.21-7.08 1.822 10.315 1.098 2.021 23.068-34.228-4.672-12.077s-6.043 8.857-11.53 1.876c-5.487-6.981-6.318-25.5-20.317-13.149 0 0-16.75-12.617-13.717-17.448 3.034-4.831-25.561-.523-25.835 13.43z"/><path fill="#4367E8" d="M376.222 199.765s-5.758 11.94-4.908 18.4l6.804 1.88 5.282-14.096-7.178-6.184z"/><path fill="#3758B5" d="M371.225 218.017l-3.039 39.548 10.143-37.74z"/><path fill="#2A3F68" d="M418.944 167.418a1.597 1.597 0 0 1 1.428.153c5.072 3.31 36.745 25.602 42.65 69.413 5.425 40.21 10.272 100.003 11.644 117.622.232 2.954-1.648 5.66-4.485 6.457-17.253 4.843-75.672 20.558-99.248 16.514a3.223 3.223 0 0 1-2.632-3.116l-1.124-100.979c-.046-4.17.185-8.339.69-12.478 2.536-20.808 12.96-78.92 51.077-93.586z"/><path fill="#FFF" d="M403.396 152.125c3.242-.234 6.253 1.664 7.39 4.66 0 0-19.435 21.465-28.467 48.05l-6.019-6.194s15.609-35.154 27.096-46.516z"/><path fill="#1B2A47" d="M410.309 156.347c2.89-1.922 9.605 11.712 9.605 11.712s-21.692 16.753-29.737 37.317a2.148 2.148 0 0 1-2.626 1.277 1.772 1.772 0 0 0-1.53.25 1.805 1.805 0 0 0-.759 1.365l-2.513 30.96a9.112 9.112 0 0 1-1.241 3.902l-14.338 23.56a213.029 213.029 0 0 1 5.468-31.606c7.18-28.4 22.365-68.577 37.67-78.738z"/><path fill="#CED4DA" d="M294.11 320.982c-1.734 1.707-3.425 2.762-5.863 2.681l-92.022-1.282a.478.478 0 0 1-.268-.865l21.104-14.803a1.03 1.03 0 0 1 .583-.186l95.77-1.302-19.304 15.757z"/><path fill="#BCBFC1" d="M194.673 320.707l-28.581-80.739a1.089 1.089 0 0 1 1.035-1.41l25.882-1.347a1.342 1.342 0 0 1 1.359.868l22.645 67.553a.877.877 0 0 1-.372 1.022c-13.041 9.136-19.87 13.82-20.487 14.053-.926.349-1.327.454-1.48 0z"/><path fill="#CC7676" d="M290.439 295.244s-15.342 4.43-25.771 5.937l16.503 3.03h18.086s2.331-1.884-.229-5.725c-3.002-4.49-8.59-3.242-8.59-3.242z"/><path fill="#344A76" d="M394.183 228.123s2.417-46.801 24.846-47.608c22.428-.807 29.536 28.153 29.279 39.273-1.016 45.002-42.85 88.624-55.068 97.096-12.218 8.473-60.58 13.718-83.146 10.894l-10.88.484v-27.113s24.58-3.227 35.057-3.227c10.477 0 23.372-8.876 28.707-9.28 5.335-.403-.903-2.017 6.35-7.666 7.254-5.648-.137-6.052 7.794-14.928 7.93-8.876 9.807-16.945 16.118-26.628l.943-11.297z"/><path fill="#8C8C8C" d="M195.757 321.406l-1.01-2.697-27.95-77.068c-.808-2.205.404-3.094.404-3.094-.7-.072-1.642.862-2.045 1.279-.768.842 0 2.958 0 2.958l28.911 79.431s.429 1.262.809 1.262c.024.04-.032-1.77.881-2.07z"/><path fill="#545454" d="M196.485 318.407l-27.099-75.678 24.451-2.403 22.206 65.168z"/><path fill="#707070" d="M221.807 307.169l-13.788 11.84a.224.224 0 0 0-.074.263.247.247 0 0 0 .241.149h35.886a.933.933 0 0 0 .723-.33l9.684-12.447-32.14.307a.82.82 0 0 0-.532.218z"/><path fill="#CC7676" d="M372.603 125.74l8.873 1.344s8.175 19.077 8.97 19.881c0 0 2.843-5.06 7.848-3.218 2.296.805 5.154 8.533 5.154 8.533-5.55 7.116-9.457 12.501-11.718 16.156-2.734 4.419-6.321 11.144-10.762 20.175-1.092-1.834-3.185-4.837-6.278-9.009 2.56-2.42 3.006-6.96 1.337-13.62-2.504-9.992-4.798-14.463-4.798-14.463 6.649 2.245 8.81-2.02 8.968-6.235.064-1.778-.206-3.307 0-5.07.382-3.45.85-9.01-2.677-8.713"/><path fill="#2A3F68" d="M370.906 148.265l-.698-3.784c-.162-3.26.186-5.877 1.55-7.673 3.302-4.355 6.637-3.043 8.349-1.61 1.712 1.433 2.499 5.33 3.31 7.383 1.777 4.5 4.576 12.536 9.737 11.932a13.672 13.672 0 0 0 9.517-5.362l-1.411-17.222c2.702-22.004-9.193-25.764-11.36-31.134-2.166-5.37-6.49-6.98-21.234-9.122-14.743-2.141-9.598 4.83-26.913 4.291-17.315-.539-25.08 17.866-19.4 26.28 5.07 7.511 4.965 4.83 7.302 5.45.97.241 1.999.05 2.815-.523 3.335-2.335 14.102-9.589 17.323-8.47 3.83 1.337.203 9.259 1.623 13.486.812 2.496 3.733 4.428 5.956 5.636a6.445 6.445 0 0 1 3.359 4.533l3.043 9.057c.103.257 2.48-.793 7.132-3.148z"/><path fill="#496FA5" d="M326.724 127.608c-1.076 0-4.152-19.69 8.193-22.737 7.542-1.858 11.945 3.15 30.872.244-4.491 3.15-12.938 4.166-18.462 3.733-6.005-.472-8.239 0-13.21 3.938-4.083 3.213-4.804 14.822-4.804 14.822-.588.252-1.61.555-2.156.223-.116-.062-.26-.137-.433-.223z"/><path fill="#485369" d="M519.73 253.054c-8.153 2.162-2.417 2.34-2.417 20.325-.137 47.508-26.1 105.417-64.444 116.995-32.39 9.78-76.953 6.23-96.584 14.161-16.836 6.802-12.027 22.794-4.833 25.215 7.193 2.42 93.362 27.336 141.92-1.243 56.219-33.082 47.318-156.903 39.262-170.62-3.238-5.503-8.16-6.1-12.905-4.833z"/><path fill="#92A9FC" d="M536.79 170.358l-17.476-14.39 9.97-21.101 22.487 20.807-.508.595a107.135 107.135 0 0 1-13.965 13.69l-.508.399zm-15.474-14.838l15.514 12.753a107.686 107.686 0 0 0 12.714-12.46l-19.728-18.25-8.5 17.957zm44.64 64.526a8.113 8.113 0 0 1 .02-16.225 8.113 8.113 0 0 1 8.11 8.112 8.12 8.12 0 0 1-8.13 8.113zm0-14.648a6.544 6.544 0 1 0 0 13.086 6.544 6.544 0 0 0 6.545-6.543 6.552 6.552 0 0 0-6.545-6.55v.007zM111.571 557.72a8.113 8.113 0 1 1 0-16.225 8.113 8.113 0 0 1 8.115 8.112 8.121 8.121 0 0 1-8.115 8.112zm0-14.648a6.544 6.544 0 1 0 0 13.086 6.544 6.544 0 0 0 6.545-6.543 6.552 6.552 0 0 0-6.545-6.543zm-84.692-98.925C12.034 444.147 0 432.343 0 417.782c0-14.56 12.034-26.364 26.879-26.364 14.844 0 26.878 11.804 26.878 26.364-.018 14.554-12.041 26.348-26.878 26.365zm0-51.143c-13.948 0-25.254 11.09-25.254 24.77 0 13.681 11.306 24.771 25.254 24.771 13.947 0 25.253-11.09 25.253-24.77-.018-13.674-11.314-24.754-25.253-24.771zm573.578-72.569v-19.267l20.286 2.937-20.286 16.33zm1.601-17.406v14.05l14.786-11.915-14.786-2.135zM90.271 457.33l-10.142-4.342 8.89-10.869 1.252 15.21zm-7.646-4.973l5.937 2.542-.75-8.904-5.187 6.362zm478.786-101.501c-.941 0-1.844-.34-2.51-.948-.666-.606-1.04-1.43-1.04-2.287v-1.484c-.063-1.192.598-2.32 1.722-2.933a3.848 3.848 0 0 1 3.649 0c1.123.613 1.785 1.74 1.72 2.933v1.484c0 1.784-1.583 3.23-3.54 3.235zm0-6.417c-1.033 0-1.871.763-1.871 1.705v1.484c-.047.636.298 1.242.895 1.572.597.33 1.347.33 1.944 0s.942-.936.895-1.572v-1.484c0-.939-.832-1.701-1.863-1.705zm55.252-122.365h-10.12v-10.14h10.143l-.023 10.14zm-8.597-1.546h7.05v-7.049h-7.027l-.023 7.049zM131.647 499.92l-27.176-3.253 3.253-27.169 27.176 3.253-3.253 27.168zm-25.41-4.651l23.98 2.876 2.877-23.972-23.979-2.877-2.877 23.973z"/><path fill="#364051" d="M510.325 413.421c-13.367 16.397-34.593 26.264-67.112 27.478-59.14 2.204-95.313-14.008-95.313-14.008s21.015-10.712 52.14-6.988c31.126 3.723 42.047 11.258 52.863 2.702 8.368-6.603 37.606-10.455 47.798-15.682 7.567-3.908 12.792-14.113 19.281-19.605 4.35-3.675 7.786-5.903 5.906-1.842-.68 1.48-5.67 15.818-15.563 27.945z"/><path fill="#233559" d="M442.354 246.41s2.443 27.612 1.238 42.144c-1.206 14.533-7.59 17.027-4.666 21.969 2.923 4.94 17.035 4.844 14.047 12.166-2.989 7.323-7.33 24.536-3.803 31.528 3.526 6.991-1.409 12.756-1.409 12.756s-33.672 9.753-53.216 11.15c-19.544 1.396-27.15 3.398-27.272-7.267-.122-10.665-1.116-45.615-1.116-45.615 25.163-5.563 43.713-23.083 57.606-43.307a52.854 52.854 0 0 0 3.55-5.974l15.04-29.55z"/><path fill="#385BB2" d="M448.314 391.418s-24.18 1.62-46.256 3.184c-15.982 1.118-30.829 2.179-34.504 2.52-9.527.882-17.055 7.024-22.39 4.318-5.336-2.706-22.037 3.864-23.963 6.343-3.675 4.724 8.866 9.269 3.224 11.181-5.642 1.912-1.281 5.145.87 7.292 7.52 7.583 2.354 2.43-.265 13.23-2.62 10.8 7.826 55.903-.992 77.705l-2.861 7.065s6.641 0 9.156-2.779c1.459-1.62.806-12.55.806-12.55s1.87-25.197 3.337-34.935c1.467-9.738-.62-46.991-3.812-58.14 0 0-.637-6.797 4.126-7.194 4.764-.397 15.765-.98 15.765-.98 36.966-5.681 64.576-10.04 82.83-13.076 3.47-.578 8.446-1.639 14.93-3.184z"/><path fill="#1C2C49" d="M399.629 334.139s41.487-10.667 44.315-8.288c2.134 1.793 3.03 9.017 3.346 12.443.102 1.004-.591 1.918-1.6 2.11-7.45 1.134-35.661 5.551-43.783 8.335a1.683 1.683 0 0 1-1.506-.215 1.616 1.616 0 0 1-.692-1.332l-.08-13.053z"/><path fill="#2D5096" d="M279.528 503.27c0-.99 4.99-5.751 3.346-9.34-.725-1.578 2.773-12.115 1.06-23.34-2.26-14.766 3.758-34.654 3.029-37.047.904 8.19 1.846 14.29 2.825 18.3.725 2.968 1.824 9.743 3.299 20.327l-.956 23.524s2.046 8.368-12.603 7.576z"/><path fill="#848C91" d="M511.092 542.508a1.186 1.186 0 0 1-1.239-1.116c-.348-6.212-2.348-36.27-9.999-65.957-.47-1.838-.575-4.198-1.077-5.964-4.76-16.854-11.035-29.928-17.926-39.929-9.367-13.644-20.581-19.061-33.39-19.061-12.809 0-23.917 5.417-32.986 19.061-3.902 5.851-6.809 13.155-9.95 21.405-2.794 7.328-5.903 15.37-8.097 24.496-7.004 29.696-8.364 59.713-8.574 65.925a1.186 1.186 0 0 1-1.215 1.14h-.04a1.139 1.139 0 0 1-.86-.35 1.118 1.118 0 0 1-.306-.87c1.182-6.204 1.62-36.526 8.639-66.391 4.647-19.688 10.825-35.395 18.347-46.687 9.554-14.318 21.326-21.582 34.993-21.582 13.667 0 25.586 7.223 35.431 21.566 7.765 11.284 14.274 26.991 19.351 46.679 3.765 14.607 5.773 30.017 7.287 41.952 1.563 12.327 2.429 21.26 2.729 24.399.029.322-.077.642-.293.885a1.194 1.194 0 0 1-.85.399h.025z"/><path fill="#2A3F68" d="M367.47 326.414s-48.914 4.554-68.256 2.706v-8.608s8.308 5.076 27.842 3.27c19.533-1.807 28.683-1.635 33.727-1.44 5.044.197 12.116-3.744 17.425-8.616 5.308-4.873 11.442-2.183 14.506-4.905 3.063-2.723-4.01-7.497.858-10.048 4.867-2.55 13.824.997 15.027-3.859.754-3.033.802-3.998 1.66-5.796a16.629 16.629 0 0 1 6.166-6.884c4.386-2.763 11.676-7.611 13.632-10.473-.04.017-23.294 49.503-62.587 54.653z"/><path fill="#3B4044" d="M329.139 544.537s-3.723 12.209-13.071 14.088c-9.349 1.88-16.104 5.477-18.217 6.311-2.114.835-12.706 4.359-15.94 4.626-3.236.268-11.097 5.396-11.097 5.396l20.607-3.24 17.599-4.862 10.324-1.912 10.299-2.252s-.984-5.525-.472-9.17c.361-2.985.35-6.003-.032-8.985zm-37.147-23.323s-11.009 21.05-18.055 14.739c-7.046-6.312-14.897 2.475-17.045 3.204-2.148.729-10.032 4.518-13.279 4.63-3.246.112-11.342 4.806-11.342 4.806l20.756-2.259 17.827-4.005 10.414-1.418 10.398-1.746s-.724-5.503-.049-9.084c.496-2.929.621-5.907.375-8.867z"/><path fill="#333" d="M213 545.226l28.09-1.591 31.63-6.565 1.007.995 17.64-3.669.423 5.233c-.295 1.133-1.936 1.309-3.107 1.483-2.12.342-12.273 1.273-12.273 1.273s-1.49.796-1.894-.342c-.403-1.138-1.24-.843-3.223-.445-1.982.397-22.144 7.694-42.08 6.286l-12.522-.86a6.478 6.478 0 0 1-3.691-1.798zm40.774 28.902l26.988-2.112 31.14-8.259 1.051.964 16.288-3.96.402 4.203s0 1.62-1.413 1.62c-2.135-.05-12.37 2.428-12.37 2.428s-1.446.875-1.903-.25c-.458-1.126-1.277-.81-3.252-.292-1.975.518-21.675 8.907-41.552 8.502-7.218.548-11.373.454-12.467-.284-1.64-1.105-.985-.908-2.912-2.56z"/><path fill="#848C91" d="M337.32 335.115a1.072 1.072 0 0 1-.501.129c-21.612.73-43.441.948-65.053 1.165-10.846.08-21.7.193-32.546.153-5.423 0-10.846 0-16.278-.089l-16.277-.136c-10.846-.089-21.7-.185-32.546-.41l-32.328.65c-10.588.185-21.418.089-32.83-.61-10.846.096-21.668-.442-32.522-.201h-1.293a1.051 1.051 0 1 1-.485-2.009l1.22-.587 13.457-6.429 6.757-3.158 6.789-3.094c4.517-2.073 9.084-4.018 13.618-6.083 4.534-2.065 9.1-4.018 13.659-5.995l.33-.144h.324c4.133.048 8.268.115 12.406.2 4.138.08 8.268.161 12.406.282 3.896.088 7.8.225 11.695.37.393.017.703.34.703.73 0 .392-.31.715-.703.732-3.896.145-7.8.281-11.695.37-4.138.12-8.268.209-12.406.281-4.138.072-8.268.16-12.406.2l.663-.144c-4.502 2.106-10.014 3.697-14.548 5.762-4.534 2.065-8.017 4.693-12.56 6.71l-6.804 3.046-6.838 2.981-12.551 5.328a1.064 1.064 0 0 1-.905-.031 1.054 1.054 0 0 1-.55-.716 1.056 1.056 0 0 1 .233-.887 1.07 1.07 0 0 1 .842-.375c10.402.241 20.795.563 31.197.659 11.088-.804 21.7 0 32.546-.145l32.546-.699c10.847-.225 21.7-.321 32.547-.41l16.277-.136c5.423-.048 12.47-.105 17.894-.097 10.846-.048 20.076.073 30.93.153 21.697.22 43.395.694 65.093 1.422l-.283 1.061c-2.473-1.503-4.647-2.748-7.056-4.243a.667.667 0 0 1-.161-.98.738.738 0 0 1 .913-.177c2.368 1.302 4.186 2.668 6.853 4.018.314.153.553.425.663.755a.923.923 0 0 1-.436.828z"/><path fill="#9B9B9B" d="M293.673 318.102l-1.521 1.683c-.277.32-.688.506-1.122.506l-94.773.226c-.78 0-1.421.587-1.456 1.333l-.057 1.192c-.016.38.131.748.406 1.022.274.273.654.428 1.05.427h94.073a1.49 1.49 0 0 0 1.025-.405l3.502-3.795c.927-.872 2.041-2.384.74-2.384l-2.453-.514c-.48.008.863.39.586.709z"/><path fill="#E28F8F" d="M299.214 303.984h-17.703c-1.61 0-13.68-4.56-26.152-2.073-12.473 2.487-26.555 12.438-23.738 14.096 2.816 1.658 2.011 3.731 7.242 3.317 5.23-.415 15.562-5.25 22.402-2.347 6.84 2.902 18.653 5.514 29.5 4.055 8.369-1.128 8.45 0 8.45 0v-17.048z"/></g><path fill="#42BF8A" fill-rule="nonzero" d="M162.915 155.485a2.257 2.257 0 0 1-1.579-.651l-5.367-5.303a1.532 1.532 0 0 1 1.074-2.611c.403 0 .789.161 1.073.449l3.946 3.887c.545.542 1.405.59 2.005.111l13.511-10.763a1.508 1.508 0 0 1 2.131.254 1.534 1.534 0 0 1-.252 2.146L164.312 155c-.399.315-.89.486-1.397.485zm0 43.942a2.257 2.257 0 0 1-1.579-.652l-5.367-5.302a1.532 1.532 0 0 1 1.074-2.612c.403 0 .789.162 1.073.45l3.946 3.887a1.508 1.508 0 0 0 2.005.111l13.511-10.764a1.508 1.508 0 0 1 2.131.255 1.534 1.534 0 0 1-.252 2.146l-15.145 11.996c-.399.315-.89.486-1.397.485z"/></g></svg>