<svg xmlns="http://www.w3.org/2000/svg" viewBox="0 0 199 34"><g fill="none"><path fill="#343B4A" d="M59.78 13.78l-2.84.8c-.1-.66-.64-1.78-2.36-1.78-1.18 0-1.94.74-1.94 1.52 0 .68.42 1.18 1.4 1.36l1.9.36c2.7.5 4.1 2.24 4.1 4.26 0 2.22-1.86 4.48-5.24 4.48-3.92 0-5.6-2.54-5.8-4.54l2.9-.7c.12 1.3 1 2.44 2.94 2.44 1.24 0 2-.6 2-1.48 0-.72-.58-1.24-1.52-1.42l-1.94-.36c-2.4-.46-3.86-2.06-3.86-4.16 0-2.68 2.36-4.56 5.08-4.56 3.54 0 4.88 2.12 5.18 3.78zm5.665-2.14v2.9h1.94v2.66h-1.94v3.72c0 .82.44 1.04 1.1 1.04.32 0 .62-.06.8-.1v2.52c-.12.06-.62.28-1.58.28-2.06 0-3.32-1.22-3.32-3.2V17.2h-1.76v-2.66h.5c1.04 0 1.54-.7 1.54-1.62v-1.28h2.72zm3.126 10.1c0-1.76 1.3-2.76 2.94-3l2.34-.36c.54-.08.72-.34.72-.68 0-.58-.5-1.08-1.46-1.08-1.06 0-1.64.72-1.7 1.46l-2.64-.54c.12-1.42 1.44-3.3 4.36-3.3 3.22 0 4.4 1.8 4.4 3.84v4.86c0 .78.1 1.44.12 1.54h-2.74c-.02-.08-.1-.44-.1-1.12-.52.84-1.48 1.4-2.8 1.4-2.18 0-3.44-1.44-3.44-3.02zm4.18.82c.9 0 1.82-.44 1.82-1.98v-.44l-1.88.3c-.64.1-1.12.4-1.12 1.1 0 .52.34 1.02 1.18 1.02zm13.205-8.02v3c-.34-.08-.66-.1-.96-.1-1.22 0-2.32.72-2.32 2.7v4.34h-3.04v-9.94h2.94v1.34c.52-1.12 1.78-1.44 2.58-1.44.3 0 .6.04.8.1zm5.346-2.9v2.9h1.94v2.66h-1.94v3.72c0 .82.44 1.04 1.1 1.04.32 0 .62-.06.8-.1v2.52c-.12.06-.62.28-1.58.28-2.06 0-3.32-1.22-3.32-3.2V17.2h-1.76v-2.66h.5c1.04 0 1.54-.7 1.54-1.62v-1.28h2.72zm10.145 12.84c-.04-.18-.08-.74-.08-1-.52.86-1.66 1.22-2.66 1.22-2.42 0-3.78-1.76-3.78-3.88v-6.28h3.04v5.64c0 .96.52 1.72 1.6 1.72 1.02 0 1.66-.7 1.66-1.7v-5.66h3.04v8.16c0 .9.08 1.62.1 1.78h-2.92zm8.086 3.8h-3.04V14.54h2.94v1.02c.42-.64 1.5-1.26 2.92-1.26 2.88 0 4.62 2.2 4.62 5.18 0 3.04-1.96 5.22-4.74 5.22-1.28 0-2.24-.44-2.7-1v4.58zm4.46-8.78c0-1.66-1.06-2.46-2.26-2.46-1.18 0-2.24.8-2.24 2.46 0 1.64 1.06 2.48 2.24 2.48 1.2 0 2.26-.82 2.26-2.48zm18.325 4.98V13.44l-4.84 11.04h-1.8l-4.8-11.04v11.04h-1.94V10.3h2.66l5 11.54 5.04-11.54h2.62v14.18h-1.94zm4.186-2.58c0-1.72 1.26-2.68 2.92-2.92l2.6-.38c.58-.08.74-.38.74-.72 0-.94-.62-1.72-2.08-1.72-1.32 0-2.06.82-2.18 1.94l-1.8-.42c.2-1.84 1.86-3.12 3.94-3.12 2.88 0 4 1.64 4 3.52v4.82c0 .84.08 1.34.12 1.58h-1.84c-.04-.24-.1-.6-.1-1.3-.42.68-1.38 1.6-3.1 1.6-1.96 0-3.22-1.36-3.22-2.88zm3.48 1.3c1.54 0 2.78-.74 2.78-2.84v-.44l-2.94.44c-.8.12-1.4.58-1.4 1.44 0 .72.6 1.4 1.56 1.4zm12.465-6.44c-.28-.04-.56-.06-.82-.06-1.58 0-2.64.84-2.64 2.96v4.82h-1.88v-9.62h1.84v1.68c.7-1.48 1.9-1.84 2.88-1.84.26 0 .52.04.62.06v2zm6.066 2.16l4.18 5.56h-2.36l-3.14-4.24-1.34 1.34v2.9h-1.86V10h1.86v9.12l4.16-4.26h2.6l-4.1 4.06zm13.405 2.82c-.54 1.7-2.08 3.04-4.32 3.04-2.58 0-4.84-1.88-4.84-5.14 0-3.02 2.18-5.08 4.6-5.08 2.96 0 4.62 2.04 4.62 5.04 0 .24-.02.48-.04.6h-7.24c.04 1.72 1.28 2.92 2.9 2.92 1.56 0 2.34-.86 2.7-1.94l1.62.56zm-1.9-3.06c-.04-1.38-.94-2.46-2.64-2.46-1.58 0-2.54 1.22-2.62 2.46h5.26zm6.425-3.82h2.08v1.7h-2.08v5c0 .88.36 1.32 1.34 1.32.24 0 .58-.04.74-.08v1.6c-.16.06-.64.18-1.28.18-1.64 0-2.68-1-2.68-2.74v-5.28h-1.84v-1.7h.52c1.04 0 1.48-.64 1.48-1.48v-1.56h1.72v3.04z"/><path fill="#1B6FFF" d="M4.836.113C9.823 1.18 14.212 1.711 18 1.711c3.788 0 8.177-.532 13.164-1.598A4 4 0 0 1 36 4.025V29.59a4 4 0 0 1-4.969 3.881 50.824 50.824 0 0 0-12.348-1.54c-4.335 0-8.925.569-13.768 1.707A4 4 0 0 1 0 29.745V4.025A4 4 0 0 1 4.836.113z"/><path fill="#FFF" d="M24.607 12.684l-3.324.937c-.117-.773-.75-2.084-2.763-2.084-1.381 0-2.27.867-2.27 1.78 0 .796.491 1.38 1.638 1.591l2.224.422c3.16.585 4.8 2.622 4.8 4.986 0 2.599-2.178 5.244-6.134 5.244-4.589 0-6.555-2.973-6.79-5.314l3.395-.82c.14 1.522 1.17 2.857 3.442 2.857 1.451 0 2.34-.703 2.34-1.733 0-.843-.678-1.451-1.779-1.662l-2.27-.421c-2.81-.539-4.519-2.411-4.519-4.87 0-3.136 2.763-5.337 5.947-5.337 4.143 0 5.712 2.481 6.063 4.424z"/><path fill="#1B6FFF" d="M174.164 7.046H171V0h3.11c1.324 0 2.154.679 2.154 1.758 0 .771-.577 1.416-1.324 1.528v.04c.957.072 1.66.77 1.66 1.703 0 1.24-.932 2.017-2.436 2.017zm-1.69-5.947v1.83h1.104c.786 0 1.235-.346 1.235-.942 0-.566-.395-.888-1.084-.888h-1.254zm0 4.848h1.314c.85 0 1.309-.361 1.309-1.035 0-.66-.474-1.01-1.343-1.01h-1.28v2.045zm10.634-.122v1.22h-4.668V0h4.668v1.216h-3.193v1.699h3.013v1.133h-3.013v1.777h3.193zm5.248 1.22h-1.474v-5.83h-2.06V0h5.6v1.216h-2.066v5.83zm8.496 0l-.538-1.708h-2.475l-.537 1.709h-1.514L194.234 0h1.734l2.45 7.046h-1.566zm-1.792-5.697l-.904 2.885h1.841l-.903-2.885h-.034z"/></g></svg>