<svg xmlns="http://www.w3.org/2000/svg" viewBox="0 0 36 46"><g fill="none" fill-rule="evenodd"><path fill="#1B6FFF" d="M4.836.09C9.823 1.154 14.212 1.686 18 1.686c3.788 0 8.177-.532 13.164-1.598A4 4 0 0 1 36 4.001v25.566a4 4 0 0 1-4.969 3.881 50.824 50.824 0 0 0-12.348-1.54c-4.335 0-8.925.569-13.768 1.707A4 4 0 0 1 0 29.72V4A4 4 0 0 1 4.836.089z"/><path fill="#FFF" d="M24.618 12.424l-3.324.937c-.117-.773-.75-2.084-2.763-2.084-1.38 0-2.27.867-2.27 1.78 0 .796.491 1.38 1.638 1.591l2.224.422c3.16.585 4.8 2.622 4.8 4.986 0 2.599-2.178 5.244-6.134 5.244-4.588 0-6.555-2.973-6.789-5.314l3.394-.82c.14 1.522 1.171 2.857 3.442 2.857 1.451 0 2.34-.703 2.34-1.733 0-.843-.678-1.451-1.778-1.662l-2.271-.421c-2.81-.539-4.518-2.411-4.518-4.87C12.609 10.201 15.37 8 18.555 8c4.143 0 5.712 2.481 6.063 4.424z"/><path fill="#1B6FFF" d="M7.164 45.046H4V38h3.11c1.324 0 2.154.679 2.154 1.758 0 .771-.576 1.416-1.324 1.528v.04c.957.072 1.66.77 1.66 1.703 0 1.24-.932 2.017-2.436 2.017zm-1.69-5.947v1.83h1.104c.786 0 1.235-.346 1.235-.942 0-.566-.395-.888-1.084-.888H5.475zm0 4.848h1.314c.85 0 1.309-.361 1.309-1.035 0-.66-.474-1.01-1.343-1.01h-1.28v2.045zm10.634-.122v1.22H11.44V38h4.668v1.216h-3.193v1.699h3.013v1.133h-3.013v1.777h3.193zm5.248 1.22h-1.474v-5.83h-2.06V38h5.6v1.216h-2.066v5.83zm8.496 0l-.538-1.708H26.84l-.537 1.709h-1.514L27.234 38h1.734l2.45 7.046h-1.566zm-1.792-5.697l-.904 2.885h1.841l-.903-2.885h-.034z"/></g></svg>