<svg xmlns="http://www.w3.org/2000/svg" xmlns:xlink="http://www.w3.org/1999/xlink" viewBox="0 0 279 272"><defs><path id="a" d="M0 0h295v288H0z"/></defs><g fill="none" fill-rule="evenodd" transform="translate(-10 -6)"><mask id="b" fill="#fff"><use xlink:href="#a"/></mask><use fill="#D8D8D8" fill-opacity="0" xlink:href="#a"/><g mask="url(#b)"><g fill="#D6DCE7"><path d="M187.527 272.976c58.346 24.6 48.791-53.95 89.912-138.515 41.12-84.564-42.064-40.316-138.478-89.97C42.547-5.16 81.726 111.072 49.05 183.008c-32.676 71.935 80.131 65.37 138.478 89.969z" opacity=".181"/><path d="M154.527 246.976c58.346 24.6 48.791-53.95 89.912-138.515 41.12-84.564-42.064-40.316-138.478-89.97C9.547-31.16 48.726 85.072 16.05 157.008c-32.676 71.935 80.131 65.37 138.478 89.969z" opacity=".129"/></g><g fill="#3B4340" transform="rotate(-45 175.646 52.505)"><path fill-rule="nonzero" d="M100.012 148.064c-3.454 3.5-7.992 5.684-13.917 6.926-4.176.875-9.016 1.32-15.745 1.487 1.494-1.95.26-3.397-.748-5.173 15.025-.333 23.634-2.113 28.515-9.022.18 1.856.542 3.354 1.095 4.485.3.615.554 1.04.8 1.297zm9.082-31.023c-1.176-.603-2.254-.449-2.254-.449s-2.145-.943-2.865.214l-.046.073c.263-5.26.351-11.31.351-18.273 0-48.248-22.68-77.847-41.367-77.847-18.688 0-41.368 29.599-41.368 77.847 0 6.696.082 12.55.322 17.666-1.47-1.786-2.69-2.26-2.69-2.26s-1.248-.714-2.577-.102c-.16-4.485-.225-9.55-.225-15.304 0-23.552 5.254-44.322 14.409-59.681 8.703-14.6 20.499-23.356 32.129-23.356 11.63 0 23.425 8.756 32.129 23.356 9.155 15.359 14.409 36.13 14.409 59.68 0 7.136-.102 13.212-.357 18.436zm-52.707 39.457c-7.207-.15-12.294-.594-16.657-1.508-6.373-1.336-11.142-3.762-14.684-7.744.388-.327.805-.813 1.351-1.402.832-.897 1.273-1.82 1.389-3.453 4.838 6.738 13.29 8.54 27.913 8.9-.58 1.614.288 3.177.288 3.177s0 .933.4 2.03z"/><path fill-rule="nonzero" d="M62.913 87.361c-9.044 0-16.375-7.358-16.375-16.434s7.331-16.434 16.375-16.434c9.043 0 16.374 7.358 16.374 16.434s-7.33 16.434-16.374 16.434zm0-5.19c6.187 0 11.203-5.034 11.203-11.244S69.1 59.682 62.913 59.682c-6.188 0-11.204 5.035-11.204 11.245 0 6.21 5.016 11.245 11.204 11.245z"/><path d="M43.953 173.858a2.585 2.585 0 0 1 2.585 2.585v17.318a2.585 2.585 0 0 1-5.17 0v-17.318a2.585 2.585 0 0 1 2.585-2.585zm37.92 0a2.585 2.585 0 0 1 2.585 2.585v17.318a2.585 2.585 0 0 1-5.17 0v-17.318a2.585 2.585 0 0 1 2.585-2.585zm-18.96 4.324a2.585 2.585 0 0 1 2.585 2.586v25.968a2.585 2.585 0 1 1-5.17 0v-25.968a2.585 2.585 0 0 1 2.585-2.586z"/><rect width="5.171" height="20.759" x="60.327" rx="2.585"/><path fill-rule="nonzero" d="M62.913 172.128c-2.7 0-4.918-1.398-6.384-3.607-.974-1.47-1.62-3.273-2.081-5.481-.715-3.427-1.015-8.058-1.015-14.266 0-6.246.302-11.26.99-15.008.434-2.364 1.028-4.292 1.896-5.853 1.402-2.52 3.623-4.223 6.594-4.223 2.97 0 5.191 1.702 6.593 4.223.869 1.56 1.462 3.49 1.896 5.853.688 3.749.99 8.762.99 15.008 0 6.208-.3 10.839-1.014 14.266-.46 2.208-1.107 4.011-2.082 5.48-1.465 2.21-3.684 3.608-6.383 3.608zm0-5.19c3.332 0 4.309-7.177 4.309-18.164 0-10.988-.977-19.894-4.31-19.894-3.331 0-4.308 8.906-4.308 19.894 0 10.987.977 18.164 4.309 18.164zM21.62 154.303c-5.377 5.022-8.7 7.194-12.849 6.655-3.28-.425-5.558-2.701-6.727-5.983-.84-2.358-1.21-5.447-1.21-9.494 0-7.363 2.03-15.364 5.283-22.358 3.482-7.483 7.324-12.408 11.981-12.408 4.002 0 7.216 2.236 9.012 6.405 1.507 3.497 2.192 8.644 2.192 16.084 0 1.663.05 6.897.038 7.892-.027 2.458-.194 3.963-.76 5.494-.64 1.732-1.586 2.931-3.132 4.33.006-.005-2.738 2.366-3.827 3.383zm-3.522-3.8c6.98-6.519 6.033-2.967 6.033-17.299 0-14.33-2.701-17.299-6.033-17.299-3.332 0-12.092 15.245-12.092 29.576 0 14.331 5.112 11.542 12.092 5.023zm85.871 6.858c-1.09-1.017-3.834-3.388-3.828-3.383-1.546-1.399-2.49-2.598-3.132-4.33-.566-1.53-.732-3.036-.76-5.494-.011-.994.038-6.23.038-7.892 0-7.44.686-12.587 2.192-16.083 1.797-4.17 5.01-6.406 9.012-6.406 4.657 0 8.5 4.925 11.981 12.408 3.254 6.994 5.282 14.995 5.282 22.358 0 4.047-.369 7.136-1.21 9.495-1.168 3.28-3.446 5.557-6.726 5.982-4.148.539-7.472-1.633-12.85-6.655zm3.522-3.8c6.98 6.52 12.093 9.31 12.093-5.022 0-14.331-8.761-29.576-12.093-29.576-3.332 0-6.033 2.968-6.033 17.3 0 14.33-.947 10.78 6.033 17.299z"/></g><path fill="#1B6FFF" d="M218.789 130.227l-5.535 5.535a5.184 5.184 0 0 1-7.331 0l-5.55-5.55c-16.7-2.439-29.522-16.82-29.522-34.195v-.077c0-19.087 15.473-34.56 34.56-34.56h8.444c19.087 0 34.56 15.473 34.56 34.56v.077c0 17.411-12.877 31.816-29.626 34.21zm8.08-29.924c2.38 0 4.31-1.936 4.31-4.325a4.317 4.317 0 0 0-4.31-4.325 4.317 4.317 0 0 0-4.309 4.325 4.317 4.317 0 0 0 4.31 4.325zm-17.236 0a4.317 4.317 0 0 0 4.309-4.325 4.317 4.317 0 0 0-4.31-4.325 4.317 4.317 0 0 0-4.308 4.325 4.317 4.317 0 0 0 4.309 4.325zm-17.237 0c2.38 0 4.31-1.936 4.31-4.325a4.317 4.317 0 0 0-4.31-4.325 4.317 4.317 0 0 0-4.309 4.325 4.317 4.317 0 0 0 4.31 4.325z"/></g></g></svg>