<svg xmlns="http://www.w3.org/2000/svg" viewBox="0 0 683 339"><path fill="#213254" stroke="#213254" stroke-width="1.3" d="M180.874 191.74l-7.003-8.288 3.492-10.468 10.602-2.09 6.716 9.765-8.14 10.734-5.667.346zm-4.777-8.695l5.608 6.635 3.817-.254 6.686-8.828-5.123-7.45-8.239 1.65-2.75 8.247zm126.94 53.025c-5.747 0-10.405-4.666-10.405-10.422s4.658-10.423 10.405-10.423c5.746 0 10.405 4.667 10.405 10.423-.006 5.754-4.661 10.417-10.405 10.422zm0-18.819c-4.635 0-8.393 3.764-8.393 8.407 0 4.643 3.758 8.407 8.393 8.407 4.635 0 8.392-3.764 8.392-8.407-.005-4.64-3.76-8.401-8.392-8.407zM582.264 71.845c-5.747 0-10.405-4.666-10.405-10.422 0-5.757 4.658-10.423 10.405-10.423 5.746 0 10.405 4.666 10.405 10.423-.006 5.753-4.661 10.417-10.405 10.422zm0-18.819c-4.635 0-8.393 3.764-8.393 8.407 0 4.642 3.758 8.406 8.393 8.406 4.635 0 8.392-3.764 8.392-8.406-.005-4.64-3.76-8.401-8.392-8.407zm-308.896 35.72c-19.035 0-34.466-15.165-34.466-33.873 0-18.707 15.43-33.873 34.466-33.873 19.035 0 34.466 15.166 34.466 33.873-.023 18.699-15.44 33.85-34.466 33.873zm0-65.708c-17.884 0-32.382 14.248-32.382 31.825 0 17.577 14.498 31.825 32.382 31.825s32.383-14.248 32.383-31.825c-.023-17.567-14.508-31.803-32.383-31.825zM166.539 295.02l4.187-13.517 15.08 9.878-19.267 3.64zm5.329-10.419l-2.452 7.913 11.276-2.151-8.824-5.762zM27.171 90.085L23 55.178 57.847 51l4.171 34.906-34.847 4.179zm32.582-5.976l-3.69-30.799-30.747 3.696 3.69 30.8 30.747-3.697zm396.67 71.997v-24.754l26.013 3.772-26.013 20.982zm2.053-22.364v18.051l18.96-15.307-18.96-2.744zM160.22 114.838c-1.207 0-2.365-.438-3.219-1.218-.853-.78-1.333-1.836-1.333-2.939v-1.906c-.082-1.532.767-2.98 2.207-3.768a4.926 4.926 0 0 1 4.68 0c1.44.788 2.288 2.236 2.206 3.768v1.906c0 2.292-2.031 4.152-4.54 4.157zm0-8.245c-1.325 0-2.4.981-2.4 2.191v1.907c-.06.816.383 1.595 1.149 2.02a2.596 2.596 0 0 0 2.492 0c.765-.425 1.208-1.204 1.148-2.02v-1.907c0-1.206-1.068-2.186-2.389-2.191zM533.496 276c-1.207 0-2.365-.438-3.219-1.218-.853-.78-1.333-1.836-1.333-2.939v-1.906c-.082-1.532.767-2.98 2.207-3.768a4.926 4.926 0 0 1 4.68 0c1.44.788 2.288 2.236 2.207 3.768v1.906c0 2.292-2.032 4.152-4.542 4.157zm0-8.245c-1.325 0-2.4.981-2.4 2.191v1.907c-.06.816.383 1.595 1.149 2.02a2.596 2.596 0 0 0 2.492 0c.765-.425 1.208-1.204 1.148-2.02v-1.907c0-1.206-1.068-2.186-2.389-2.191zm82.757-26.544l-28.787-26.31 7.827-38.737 40.237-9.213L659 209.939l-6.327 18.845-36.42 12.427zm-26.532-27.032l26.981 24.666 34.39-11.673 5.694-17.003-22.287-40.831-37.471 8.574-7.307 36.267zm-168.435 90.483l-22.409-18.488 12.783-27.11 28.837 26.733-.652.764a137.504 137.504 0 0 1-17.907 17.588l-.652.513zm-19.842-19.064l19.894 16.385a138.211 138.211 0 0 0 16.302-16.008l-25.297-23.448-10.899 23.071zm-326.44-56.077c-5.743-.011-10.392-4.682-10.384-10.436.007-5.753 4.667-10.413 10.411-10.409 5.744.004 10.398 4.669 10.398 10.423a10.442 10.442 0 0 1-3.057 7.374 10.406 10.406 0 0 1-7.368 3.048zm0-18.819c-4.635 0-8.392 3.764-8.392 8.407 0 4.642 3.757 8.406 8.392 8.406s8.393-3.764 8.393-8.406c0-4.645-3.756-8.411-8.393-8.417v.01zM421.535 52.69h-12.977V39.662h13.006l-.03 13.028zm-11.024-1.986h9.041v-9.056h-9.011l-.03 9.056z"/></svg>