<svg xmlns="http://www.w3.org/2000/svg" viewBox="0 0 261 278"><g fill="none" fill-rule="evenodd"><path fill="#D6DCE7" fill-rule="nonzero" d="M237.01 213h-.043c-1.096 0-1.967.899-1.967 2 0 1.11.91 2 2.01 2 1.096 0 1.99-.89 1.99-2a2 2 0 0 0-1.99-2zM68.01 0h-.043C66.87 0 66 .895 66 2s.91 2 2.01 2C69.105 4 70 3.105 70 2s-.894-2-1.99-2zm96 9h-.043c-1.096 0-1.967.895-1.967 2s.91 2 2.01 2c1.096 0 1.99-.895 1.99-2s-.894-2-1.99-2zm-162 52h-.043C.87 61 0 61.895 0 63s.91 2 2.01 2C3.105 65 4 64.105 4 63s-.894-2-1.99-2zm35 117h-.043c-1.096 0-1.967.89-1.967 2 0 1.101.91 2 2.01 2a2 2 0 0 0 1.99-2c0-1.11-.894-2-1.99-2zm108 91h-.043c-1.096 0-1.967.89-1.967 2 0 1.101.91 2 2.01 2a2 2 0 0 0 1.99-2c0-1.11-.894-2-1.99-2zm105 5h-.043c-1.096 0-1.967.898-1.967 2 0 1.11.91 2 2.01 2 1.096 0 1.99-.89 1.99-2 0-1.102-.894-2-1.99-2zm-48-118h-.043c-1.097 0-1.967.89-1.967 2 0 1.102.91 2 2.01 2 1.096 0 1.99-.898 1.99-2 0-1.11-.894-2-1.99-2zm52-18h-.043c-1.096 0-1.967.895-1.967 2s.91 2 2.01 2c1.096 0 1.99-.895 1.99-2s-.894-2-1.99-2zm-26 62h-.043c-1.096 0-1.967.899-1.967 2 0 1.11.91 2 2.01 2 1.096 0 1.99-.891 1.99-2a2 2 0 0 0-1.99-2z"/><path fill="#D6DCE7" fill-rule="nonzero" d="M239 182c-12.126 0-21.996 9.864-22 21.996.004 12.123 9.874 21.995 22.004 22.004 12.13-.009 21.996-9.88 21.996-22.004 0-12.132-9.87-21.996-22-21.996zm.004 39.601c-9.702-.008-17.599-7.904-17.603-17.605.004-9.701 7.897-17.597 17.599-17.597 9.707 0 17.6 7.888 17.6 17.597 0 9.7-7.893 17.597-17.596 17.605z"/><path fill="#D6DCE7" fill-rule="nonzero" d="M245.498 191a6.505 6.505 0 0 0-6.498 6.5c.004 3.58 2.925 6.5 6.511 6.5a6.439 6.439 0 0 0 4.601-1.913A6.438 6.438 0 0 0 252 197.5c0-3.58-2.917-6.5-6.502-6.5zm1.54 8.032a2.148 2.148 0 0 1-1.527.635h-.009c-1.215 0-2.163-.957-2.167-2.175a2.16 2.16 0 0 1 2.159-2.159 2.174 2.174 0 0 1 1.545 3.699z"/><path fill="#FFC709" fill-rule="nonzero" d="M185.992 232.199c0-1.211-.893-2.199-1.996-2.199s-1.996.988-1.996 2.199l.008 17.602c0 1.21.893 2.199 1.996 2.199s1.996-.988 1.996-2.199l-.008-17.602z"/><path fill="#FFC709" fill-rule="nonzero" d="M188.834 239h-8.667c-1.198 0-2.167.89-2.167 2 0 1.101.97 2 2.167 2h8.667c1.197 0 2.166-.899 2.166-2 0-1.11-.97-2-2.166-2z"/><path fill="#FF8B09" fill-rule="nonzero" d="M98 247c-1.105 0-2 .98-2 2.2v17.6c0 1.212.895 2.2 2 2.2 1.106 0 2-.988 2-2.2v-17.6c0-1.22-.894-2.2-2-2.2z"/><path fill="#FF8B09" fill-rule="nonzero" d="M102.833 256h-8.665c-1.199 0-2.168.89-2.168 2 0 1.101.97 2 2.168 2h8.665c1.198 0 2.167-.899 2.167-2 0-1.11-.969-2-2.167-2z"/><path fill="#0FE1B2" fill-rule="nonzero" d="M45.002 32c-1.104 0-1.998.984-1.998 2.2L43 51.8c0 1.216.894 2.2 1.998 2.2s1.998-.984 1.998-2.2L47 34.2c0-1.216-.894-2.2-1.998-2.2z"/><path fill="#0FE1B2" fill-rule="nonzero" d="M49.834 41h-8.667C39.969 41 39 41.895 39 43s.97 2 2.167 2h8.667C51.03 45 52 44.105 52 43s-.97-2-2.166-2z"/><path fill="#FF7AC4" fill-rule="nonzero" d="M133.002 17c-1.104 0-1.998.984-1.998 2.2L131 36.8c0 1.216.894 2.2 1.998 2.2s1.998-.984 1.998-2.2L135 19.2c0-1.216-.894-2.2-1.998-2.2z"/><path fill="#FF7AC4" fill-rule="nonzero" d="M137.832 26h-8.665c-1.198 0-2.167.895-2.167 2s.97 2 2.167 2h8.665c1.199 0 2.168-.894 2.168-2 0-1.105-.97-2-2.168-2z"/><path fill="#1B6FFF" fill-rule="nonzero" d="M15.004 118c-1.104 0-1.996.985-1.996 2.2L13 137.8c0 1.216.892 2.2 1.996 2.2 1.103 0 1.996-.984 1.996-2.2L17 120.2c0-1.216-.893-2.2-1.996-2.2z"/><path fill="#1B6FFF" fill-rule="nonzero" d="M19.834 125h-8.668C9.97 125 9 125.894 9 127c0 1.106.969 2 2.166 2h8.668c1.197 0 2.166-.894 2.166-2 0-1.106-.969-2-2.166-2z"/><path fill="#D6DCE7" fill-rule="nonzero" d="M100.455 65.272c-5.854-5.699-16.051-5.694-21.915.004C75.613 68.12 74 71.903 74 75.928c.004 4.024 1.617 7.809 4.545 10.656C81.477 89.431 85.368 91 89.502 91c4.139 0 8.03-1.568 10.953-4.416 2.932-2.846 4.545-6.631 4.545-10.656s-1.613-7.81-4.545-10.656zm-3.13 18.268c-4.177 4.071-11.463 4.071-15.65 0-2.092-2.036-3.242-4.74-3.246-7.612 0-2.872 1.15-5.576 3.242-7.608 2.093-2.035 4.873-3.158 7.831-3.158 2.954 0 5.73 1.119 7.823 3.154 2.093 2.036 3.248 4.74 3.248 7.612 0 2.873-1.155 5.577-3.248 7.612z"/><path fill="#D6DCE7" fill-rule="nonzero" d="M103.973 62.652a2.225 2.225 0 0 0-3.408 2.833c-.082 1.43-2.768 6.493-9.183 12.908-6.412 6.406-11.47 9.092-12.896 9.174a2.226 2.226 0 0 0-2.834 3.408c.717.716 1.63 1.025 2.66 1.025 5.428 0 14.23-8.474 16.216-10.46 2.365-2.365 13.94-14.395 9.445-18.888z"/><path fill="#E56B5E" fill-rule="nonzero" d="M104.027 181.923c6.511 6.496 8.47 17.181 1.965 23.682-6.511 6.497-26.134 13.735-32.645 7.238-6.506-6.496.75-26.085 7.256-32.582 6.51-6.497 16.918-4.839 23.424 1.662z"/><path fill="#4E72F1" fill-rule="nonzero" d="M163.703 168.13c9.76 20.423-14.058 67.962-25.072 54.51-4.466-5.453-4.171-14.153-15.83-25.356-.018.07 4.244.762 9.235-3.799 11.517-8.954 31.667-25.281 31.667-25.356zM122.8 122.44c-21.93-9.905-72.72 13.737-58.246 24.858 5.869 4.51 15.18 4.263 27.241 16.025-.074.018-.834-4.263 4.025-9.25 9.515-11.514 26.898-31.634 26.98-31.634z"/><path fill="#3C5CCA" fill-rule="nonzero" d="M117.496 120.66h-1.199c-4.867 5.9-18.299 21.457-25.549 30.66-2.972 3.203-3.777 6.114-3.948 7.833a52.837 52.837 0 0 1 4.397 3.37c.37-1.738 1.34-4.16 3.772-6.782 9.255-11.757 27.774-33.052 27.853-33.048-1.658-.786-3.366-1.64-5.326-2.033zm45.844 46.668c-2.895 2.422-21.24 17.37-32.142 25.9-3.603 3.314-6.801 3.935-8.398 3.996a51.67 51.67 0 0 1 4.074 4.546c1.434.022 4.887-.428 8.785-4.009 9.124-7.144 23.413-18.733 29.541-23.766-.33-2.413-.937-4.664-1.86-6.667z"/><path fill="#A33C31" fill-rule="nonzero" d="M88.669 176.517c.917 4.108 3.466 9.578 7.854 13.956 4.366 4.356 9.248 7.16 13.353 8.094.697-5.52-1.884-13.27-6.17-17.537-4.265-4.25-9.608-5.267-15.037-4.513z"/><path fill="#D9E1F0" fill-rule="nonzero" d="M218.274 67.057c13.255 12.781-23.842 63.773-55.343 95.14-19.503 19.424-32.44 26.943-35.535 29.635-8.561 3.891-9.104 10.005-26.07-6.897-16.927-16.86-9.355-18.556-5.6-26.63 2.785-3.135 10.5-16.155 30.008-35.583 31.487-31.363 78.762-67.915 92.54-55.665z"/><path fill="#344A76" fill-rule="nonzero" d="M160.963 125.116c6.716 6.724 6.716 17.625 0 24.353-6.72 6.724-17.606 6.724-24.326 0-6.716-6.728-6.716-17.63 0-24.353 6.72-6.728 17.607-6.728 24.326 0z"/><path fill="#CCD0D2" fill-rule="nonzero" d="M155.422 131.461a8.818 8.818 0 0 1 0 12.46c-3.432 3.442-9.007 3.442-12.448 0-3.432-3.44-3.432-9.019 0-12.46 3.445-3.44 9.016-3.44 12.448 0z"/><path fill="#4E72F1" d="M174.654 81.234c12.611 7.78 22.899 17.73 30.863 29.853 14.36-22.542 18.888-37.151 13.583-43.83-5.306-6.678-20.121-2.019-44.446 13.977z"/></g></svg>