<svg version="1" xmlns="http://www.w3.org/2000/svg" viewBox="0 0 512.000000 512.000000"><path d="M45 16.6C25.1 20.7 8.9 35.7 2.3 56 .6 61.2.5 71.7.5 251c0 104.2.3 191.1.7 193 1.9 10 7.1 20 14.2 27.4C26.1 482.5 37.9 488 53 488.7c8.5.4 11.7 0 30.5-4 27.8-6 40.2-8.3 53-10.2 2.2-.3 4.7-.7 5.5-1 .8-.2 3.8-.6 6.5-.9 2.8-.3 9.7-1.2 15.5-2 10-1.4 15-2 25.8-3.1 2.6-.2 7-.7 9.7-.9 4.8-.5 14.3-1.1 32-2.1 9.6-.6 50-.6 60.5 0 16.1.8 33.1 2 41.5 3 5.4.6 28.2 3.4 32.4 4 6 .8 27.3 4.5 35.1 6.2 4.1.8 8.4 1.7 9.5 1.9 1.1.2 8.5 1.9 16.5 3.7 23.1 5.3 32.6 4.8 47.5-2.3 15.3-7.3 26.5-21.7 30.1-38.5 2-9.3 2-373.2-.1-382.7-5.4-25.8-30-45.2-56.1-44.3-3.2.2-10.8 1.2-16.9 2.5-6 1.2-12.3 2.4-14 2.6-1.6.3-4.6.9-6.5 1.4-1.9.5-5.5 1.2-8 1.5-2.5.3-5.2.8-6 1-1.8.6-16.8 3.1-23 4-2.5.3-5.7.8-7.2 1.1-5.6.9-8.4 1.3-13.8 1.9-3 .4-6.3.9-7.2 1-.9.2-4.5.6-8 1-3.5.3-7 .8-7.8 1-.8.2-5.1.7-9.5 1-4.4.4-9.6.8-11.5 1-26.3 2.6-99.3 2.6-113 0-.8-.2-5.3-.6-9.9-1-4.7-.4-9.2-.8-10-1-.9-.1-4.3-.6-7.6-.9-6.4-.8-6.5-.8-23-3.1-14.7-2.1-32.9-5.1-38-6.1-1.1-.3-3.3-.7-5-.9-1.6-.3-4.1-.7-5.5-1-3.6-.8-17-3.5-20-4.1-1.4-.2-4.9-.9-7.9-1.5-8.1-1.7-16.9-1.7-24.1-.3z"/></svg>